<svg width="123" height="123" viewBox="0 0 123 123" fill="none" xmlns="http://www.w3.org/2000/svg">
<path d="M41.4527 48.1807H21.9966C21.1701 48.1807 20.5 48.9116 20.5 49.8133V73.7593C20.5 74.661 21.1701 75.392 21.9966 75.392H41.4527C42.2793 75.392 42.9493 74.661 42.9493 73.7593V49.8133C42.9493 48.9116 42.2793 48.1807 41.4527 48.1807Z" stroke="#C41E3A" stroke-width="2.72113"/>
<path d="M32.0664 48.1807V75.392" stroke="#C41E3A" stroke-width="1.36057"/>
<path d="M50.4336 63.1465H64.6299" stroke="#C41E3A" stroke-width="2.72113"/>
<path d="M66.7589 63.1465L62.5 59.7451V66.5479L66.7589 63.1465Z" fill="#C41E3A"/>
<path d="M81.0462 63.8268C85.5547 63.8268 89.2096 60.1719 89.2096 55.6634C89.2096 51.1549 85.5547 47.5 81.0462 47.5C76.5377 47.5 72.8828 51.1549 72.8828 55.6634C72.8828 60.1719 76.5377 63.8268 81.0462 63.8268Z" fill="#C41E3A"/>
<path d="M72.8828 72.6702C72.8828 67.228 75.6039 64.5068 81.0462 64.5068C86.4885 64.5068 89.2096 67.228 89.2096 72.6702" fill="#C41E3A"/>
<path opacity="0.7" d="M95.6736 65.1871C99.2429 65.1871 102.136 62.2937 102.136 58.7244C102.136 55.1552 99.2429 52.2617 95.6736 52.2617C92.1044 52.2617 89.2109 55.1552 89.2109 58.7244C89.2109 62.2937 92.1044 65.1871 95.6736 65.1871Z" fill="#C41E3A"/>
<path opacity="0.7" d="M89.5508 72.8395C89.5508 68.6444 91.6483 66.5469 95.8434 66.5469C100.038 66.5469 102.136 68.6444 102.136 72.8395" fill="#C41E3A"/>
<path opacity="0.8" d="M61.5 121.5C94.6371 121.5 121.5 94.6371 121.5 61.5C121.5 28.3629 94.6371 1.5 61.5 1.5C28.3629 1.5 1.5 28.3629 1.5 61.5C1.5 94.6371 28.3629 121.5 61.5 121.5Z" stroke="#C41E3A" stroke-width="3" stroke-dasharray="10 5"/>
</svg>
