<svg width="124" height="124" viewBox="0 0 124 124" fill="none" xmlns="http://www.w3.org/2000/svg">
<path opacity="0.8" d="M62 122C95.1371 122 122 95.1371 122 62C122 28.8629 95.1371 2 62 2C28.8629 2 2 28.8629 2 62C2 95.1371 28.8629 122 62 122Z" stroke="#CE0000" stroke-width="4" stroke-dasharray="10 5"/>
<ellipse opacity="0.8" cx="24.6398" cy="25.3743" rx="24.6398" ry="25.3743" transform="matrix(-1 0 0 1 95.002 27)" stroke="#CE0000" stroke-width="4"/>
<path opacity="0.8" d="M31.4341 96.3286C30.6656 97.122 29.3994 97.142 28.6061 96.3735C27.8127 95.6049 27.7927 94.3387 28.5612 93.5454L29.9977 94.937L31.4341 96.3286ZM51.25 73L52.6865 74.3916L31.4341 96.3286L29.9977 94.937L28.5612 93.5454L49.8135 71.6084L51.25 73Z" fill="#CE0000"/>
</svg>
