<svg width="123" height="123" viewBox="0 0 123 123" fill="none" xmlns="http://www.w3.org/2000/svg">
<path d="M85.5 93.5C85.5 93.5 71.436 93.5 64.5 93.5C64.5 72.1543 64.2711 49.2179 64.2711 28.5C63.4771 28.5 63.5615 28.5 60.4477 28.5C60.4477 49.8457 60.5 93.5 60.5 93.5C38.5 93.5 38.5 93.5 38.5 93.5" stroke="#CE0000" stroke-width="1.91171"/>
<path d="M62.3965 28.4561C62.7431 28.456 63.0898 28.4561 63.4365 28.4561V29.4121C63.4365 39.8688 63.4633 50.7559 63.4902 61.7207C63.4914 62.1903 63.492 62.66 63.4932 63.1299H63.4365V72.9365H63.5156C63.5306 79.8513 63.542 86.7496 63.543 93.5439H62.4541C62.4537 93.2768 62.4536 92.9563 62.4531 92.5859C62.4515 91.3532 62.4491 89.5678 62.4463 87.3584C62.4407 82.9396 62.4332 76.8235 62.4258 70.0342C62.4109 56.4553 62.3965 40.1838 62.3965 29.4121V28.4561Z" fill="#CE0000" fill-opacity="0.3" stroke="#CE0000" stroke-width="1.91171"/>
<path d="M51.1016 38.8184C51.1048 45.4309 51.14 52.1784 51.1758 58.9707C51.2116 65.7743 51.2459 72.6235 51.249 79.4316C47.8704 79.4412 44.3211 79.4969 40.7568 79.5547C37.1783 79.6127 33.5841 79.6684 30.1191 79.6777C30.1188 79.1689 30.1186 78.4806 30.1172 77.6699C30.114 75.8906 30.1084 73.5185 30.1025 71.1465C30.0966 68.7742 30.091 66.4013 30.0859 64.6221C30.0836 63.8114 30.0807 63.1237 30.0791 62.6152H30.123L30.1211 61.6582L30.083 38.8184H51.1016Z" fill="#CE0000" fill-opacity="0.3" stroke="#CE0000" stroke-width="1.91171"/>
<path d="M94.874 55.2773L95.0645 78.7373C94.5314 78.734 93.8005 78.7301 92.9268 78.7246C91.0392 78.7128 88.4849 78.6969 85.8184 78.6797C81.2125 78.65 76.2735 78.6149 73.8545 78.5957V38.5889C76.2767 38.5787 81.1734 38.5588 85.7314 38.541C88.3705 38.5307 90.8961 38.5209 92.7617 38.5137C93.6252 38.5103 94.3473 38.5069 94.874 38.5049V55.2773Z" fill="#CE0000" fill-opacity="0.3" stroke="#CE0000" stroke-width="1.91171"/>
<path d="M40.5879 27.7021V38.6462" stroke="#CE0000" stroke-width="3.82343"/>
<path d="M84.5605 27.4561V38.3485" stroke="#CE0000" stroke-width="3.82343"/>
<path d="M84.2383 78.6621L84.4345 92.5015" stroke="#CE0000" stroke-width="1.91171"/>
<line x1="39.4558" y1="80.4942" x2="39.5332" y2="93.1636" stroke="#CE0000" stroke-width="1.91171"/>
<path d="M72.9238 44.0928H63.2802" stroke="#CE0000" stroke-width="1.91171"/>
<line x1="72.5215" y1="54.3836" x2="62.8779" y2="54.3836" stroke="#CE0000" stroke-width="1.91171"/>
<path d="M60.4688 64.71H52.0306" stroke="#CE0000" stroke-width="1.91171"/>
<path d="M60.498 70.4688H52.0599" stroke="#CE0000" stroke-width="1.91171"/>
<path d="M61.5 121.5C94.6371 121.5 121.5 94.6371 121.5 61.5C121.5 28.3629 94.6371 1.5 61.5 1.5C28.3629 1.5 1.5 28.3629 1.5 61.5C1.5 94.6371 28.3629 121.5 61.5 121.5Z" stroke="#CE0000" stroke-width="3" stroke-dasharray="10 5"/>
<path d="M38.5 28.5L86.5 28.5M38.5 94.5L85.5 94.5" stroke="#CE0000" stroke-width="3"/>
<path d="M38.5 27.5L86.5 27.5M38.5 93.5L85.5 93.5" stroke="#CE0000" stroke-width="3"/>
</svg>
