<svg width="287" height="69" viewBox="0 0 287 69" fill="none" xmlns="http://www.w3.org/2000/svg">
<path d="M73.7572 28.32C71.4532 28.32 69.6399 27.68 68.3172 26.4C66.9945 25.12 66.3332 23.3813 66.3332 21.184H69.7572C69.7572 22.4853 70.1092 23.4987 70.8132 24.224C71.5172 24.928 72.4985 25.28 73.7572 25.28C75.0159 25.28 75.9972 24.928 76.7012 24.224C77.4052 23.4987 77.7572 22.496 77.7572 21.216V7.808H72.2532V4.64H81.1812V21.216C81.1812 23.4133 80.5092 25.152 79.1652 26.432C77.8425 27.6907 76.0399 28.32 73.7572 28.32ZM94.0007 28.32C92.422 28.32 91.0674 28.064 89.9367 27.552C88.806 27.0187 87.9314 26.272 87.3127 25.312C86.694 24.3307 86.3847 23.168 86.3847 21.824H89.8087C89.8087 22.8907 90.182 23.7333 90.9287 24.352C91.6754 24.9493 92.71 25.248 94.0327 25.248C95.27 25.248 96.2407 24.9493 96.9447 24.352C97.6487 23.7547 98.0007 22.9333 98.0007 21.888C98.0007 21.0133 97.7554 20.256 97.2647 19.616C96.7954 18.976 96.1127 18.5387 95.2167 18.304L92.2727 17.44C90.566 16.9493 89.2434 16.1173 88.3047 14.944C87.3874 13.7493 86.9287 12.3307 86.9287 10.688C86.9287 9.408 87.2167 8.288 87.7927 7.328C88.3687 6.368 89.19 5.62133 90.2567 5.088C91.3234 4.55467 92.582 4.288 94.0327 4.288C96.166 4.288 97.8727 4.864 99.1527 6.016C100.454 7.168 101.115 8.71467 101.137 10.656H97.6807C97.6807 9.632 97.35 8.832 96.6887 8.256C96.0487 7.65867 95.142 7.36 93.9687 7.36C92.838 7.36 91.9527 7.63733 91.3127 8.192C90.6727 8.72533 90.3527 9.48267 90.3527 10.464C90.3527 11.3387 90.5874 12.096 91.0567 12.736C91.5474 13.376 92.2407 13.824 93.1367 14.08L96.1127 14.976C97.8194 15.4453 99.1314 16.2773 100.049 17.472C100.966 18.6667 101.425 20.096 101.425 21.76C101.425 23.0613 101.115 24.2133 100.497 25.216C99.878 26.1973 99.014 26.9653 97.9047 27.52C96.7954 28.0533 95.494 28.32 94.0007 28.32ZM105.604 28V4.64H109.86L112.196 12.128C112.431 12.832 112.634 13.5147 112.804 14.176C112.975 14.816 113.092 15.296 113.156 15.616C113.242 15.296 113.359 14.816 113.508 14.176C113.679 13.5147 113.871 12.832 114.084 12.128L116.324 4.64H120.58V28H117.316V20.128C117.316 19.1253 117.338 18.016 117.38 16.8C117.444 15.5627 117.53 14.3253 117.636 13.088C117.743 11.8293 117.85 10.6347 117.956 9.504C118.063 8.352 118.159 7.34933 118.244 6.496L114.788 17.856H111.46L107.94 6.496C108.047 7.328 108.154 8.29867 108.26 9.408C108.367 10.496 108.463 11.6587 108.548 12.896C108.634 14.1333 108.708 15.3813 108.772 16.64C108.836 17.8773 108.868 19.04 108.868 20.128V28H105.604ZM68.6052 60V36.64H72.0612V56.832H82.2692V60H68.6052ZM92.1447 60.32C90.31 60.32 88.8594 59.8507 87.7927 58.912C86.7474 57.952 86.2247 56.6507 86.2247 55.008C86.2247 53.344 86.7794 52.0427 87.8887 51.104C89.0194 50.144 90.566 49.664 92.5287 49.664H97.4247V48.032C97.4247 47.072 97.126 46.3253 96.5287 45.792C95.9314 45.2587 95.0887 44.992 94.0007 44.992C93.0407 44.992 92.2407 45.2053 91.6007 45.632C90.9607 46.0373 90.5874 46.5813 90.4807 47.264H87.0887C87.2807 45.6853 88.006 44.4267 89.2647 43.488C90.5447 42.5493 92.1554 42.08 94.0967 42.08C96.1874 42.08 97.8407 42.6133 99.0567 43.68C100.273 44.7253 100.881 46.1547 100.881 47.968V60H97.5207V56.768H96.9447L97.5207 56.128C97.5207 57.408 97.03 58.432 96.0487 59.2C95.0674 59.9467 93.766 60.32 92.1447 60.32ZM93.1687 57.664C94.406 57.664 95.4194 57.3547 96.2087 56.736C97.0194 56.096 97.4247 55.2853 97.4247 54.304V52H92.5927C91.6967 52 90.982 52.2453 90.4487 52.736C89.9367 53.2267 89.6807 53.8987 89.6807 54.752C89.6807 55.648 89.99 56.3627 90.6087 56.896C91.2274 57.408 92.0807 57.664 93.1687 57.664ZM113.06 60.32C110.948 60.32 109.263 59.712 108.004 58.496C106.746 57.2587 106.116 55.584 106.116 53.472V42.4H109.572V53.472C109.572 54.688 109.882 55.6373 110.5 56.32C111.119 56.9813 111.972 57.312 113.06 57.312C114.17 57.312 115.034 56.9813 115.652 56.32C116.292 55.6373 116.612 54.688 116.612 53.472V42.4H120.068V53.472C120.068 55.584 119.428 57.2587 118.148 58.496C116.89 59.712 115.194 60.32 113.06 60.32ZM125.368 60V42.4H128.792V45.76H129.624L128.792 46.56C128.792 45.152 129.208 44.0533 130.04 43.264C130.872 42.4747 132.024 42.08 133.496 42.08C135.245 42.08 136.642 42.6453 137.688 43.776C138.733 44.8853 139.256 46.3893 139.256 48.288V60H135.8V48.672C135.8 47.52 135.49 46.6347 134.872 46.016C134.253 45.3973 133.41 45.088 132.344 45.088C131.256 45.088 130.392 45.4187 129.752 46.08C129.133 46.72 128.824 47.6587 128.824 48.896V60H125.368ZM151.595 60.32C150.145 60.32 148.865 60.0533 147.755 59.52C146.667 58.9653 145.825 58.176 145.227 57.152C144.651 56.1067 144.363 54.8907 144.363 53.504V48.896C144.363 47.488 144.651 46.272 145.227 45.248C145.825 44.224 146.667 43.4453 147.755 42.912C148.865 42.3573 150.145 42.08 151.595 42.08C153.707 42.08 155.403 42.6347 156.683 43.744C157.963 44.8533 158.635 46.368 158.699 48.288H155.243C155.179 47.2853 154.827 46.5067 154.187 45.952C153.547 45.3973 152.683 45.12 151.595 45.12C150.422 45.12 149.494 45.4507 148.811 46.112C148.129 46.752 147.787 47.6693 147.787 48.864V53.504C147.787 54.6987 148.129 55.6267 148.811 56.288C149.494 56.9493 150.422 57.28 151.595 57.28C152.683 57.28 153.547 57.0027 154.187 56.448C154.827 55.8933 155.179 55.1147 155.243 54.112H158.699C158.635 56.032 157.963 57.5467 156.683 58.656C155.403 59.7653 153.707 60.32 151.595 60.32ZM163.743 60V36.64H167.199V42.4L167.167 45.76H167.999L167.167 46.56C167.167 45.152 167.583 44.0533 168.415 43.264C169.247 42.4747 170.399 42.08 171.871 42.08C173.62 42.08 175.017 42.6453 176.063 43.776C177.108 44.8853 177.631 46.3893 177.631 48.288V60H174.175V48.672C174.175 47.52 173.865 46.624 173.247 45.984C172.628 45.344 171.785 45.024 170.719 45.024C169.631 45.024 168.767 45.3653 168.127 46.048C167.508 46.7093 167.199 47.6587 167.199 48.896V60H163.743Z" fill="white"/>
<path d="M182.93 60V36.64H190.578C192.093 36.64 193.405 36.928 194.514 37.504C195.645 38.08 196.509 38.9013 197.106 39.968C197.725 41.0133 198.034 42.2507 198.034 43.68C198.034 45.088 197.725 46.3253 197.106 47.392C196.488 48.4587 195.624 49.28 194.514 49.856C193.405 50.432 192.093 50.72 190.578 50.72H186.386V60H182.93ZM186.386 47.616H190.578C191.773 47.616 192.722 47.264 193.426 46.56C194.152 45.8347 194.514 44.8747 194.514 43.68C194.514 42.464 194.152 41.504 193.426 40.8C192.722 40.096 191.773 39.744 190.578 39.744H186.386V47.616ZM207.27 60.32C205.435 60.32 203.984 59.8507 202.918 58.912C201.872 57.952 201.35 56.6507 201.35 55.008C201.35 53.344 201.904 52.0427 203.014 51.104C204.144 50.144 205.691 49.664 207.654 49.664H212.55V48.032C212.55 47.072 212.251 46.3253 211.654 45.792C211.056 45.2587 210.214 44.992 209.126 44.992C208.166 44.992 207.366 45.2053 206.726 45.632C206.086 46.0373 205.712 46.5813 205.606 47.264H202.214C202.406 45.6853 203.131 44.4267 204.39 43.488C205.67 42.5493 207.28 42.08 209.222 42.08C211.312 42.08 212.966 42.6133 214.182 43.68C215.398 44.7253 216.006 46.1547 216.006 47.968V60H212.646V56.768H212.07L212.646 56.128C212.646 57.408 212.155 58.432 211.174 59.2C210.192 59.9467 208.891 60.32 207.27 60.32ZM208.294 57.664C209.531 57.664 210.544 57.3547 211.334 56.736C212.144 56.096 212.55 55.2853 212.55 54.304V52H207.718C206.822 52 206.107 52.2453 205.574 52.736C205.062 53.2267 204.806 53.8987 204.806 54.752C204.806 55.648 205.115 56.3627 205.734 56.896C206.352 57.408 207.206 57.664 208.294 57.664ZM226.969 60.32C225.199 60.32 223.78 59.7227 222.713 58.528C221.647 57.3333 221.113 55.7227 221.113 53.696V48.736C221.113 46.688 221.647 45.0667 222.713 43.872C223.78 42.6773 225.199 42.08 226.969 42.08C228.42 42.08 229.572 42.4853 230.425 43.296C231.279 44.0853 231.705 45.1733 231.705 46.56L230.969 45.76H231.769L231.673 41.664V36.64H235.129V60H231.705V56.64H230.969L231.705 55.84C231.705 57.2267 231.279 58.3253 230.425 59.136C229.572 59.9253 228.42 60.32 226.969 60.32ZM228.153 57.312C229.241 57.312 230.095 56.9813 230.713 56.32C231.353 55.6373 231.673 54.6987 231.673 53.504V48.896C231.673 47.7013 231.353 46.7733 230.713 46.112C230.095 45.4293 229.241 45.088 228.153 45.088C227.023 45.088 226.137 45.4187 225.497 46.08C224.857 46.72 224.537 47.6587 224.537 48.896V53.504C224.537 54.7413 224.857 55.6907 225.497 56.352C226.137 56.992 227.023 57.312 228.153 57.312Z" fill="#50AEA0"/>
<path d="M47.6257 47.7969L37.4647 41.9414L26.5078 48.2713V59.9982L47.6257 47.7969Z" fill="#E5E9F2"/>
<path d="M22.907 59.9988V48.272L11.9415 41.9336L1.78906 47.7976L22.907 59.9988Z" fill="#E5E9F2"/>
<path d="M0 20.3189V44.7023L10.1593 38.8397V26.1711L0 20.3086V20.3189Z" fill="#E5E9F2"/>
<path d="M44.9543 22.8886L39.2617 26.1731V38.8315L49.4108 44.6939V20.3105L44.9543 22.8886Z" fill="#66778B"/>
<path d="M1.78906 17.2013L11.9587 23.0655L22.9153 16.7355V5.00879L1.78906 17.2013Z" fill="#50AEA0"/>
<path d="M37.4595 23.0654L47.6205 17.2011L26.4941 5V16.7353L37.4595 23.0654Z" fill="#ED942D"/>
</svg>
