<svg width="151" height="151" viewBox="0 0 151 151" fill="none" xmlns="http://www.w3.org/2000/svg">
<rect width="151" height="151" rx="37.75" fill="#45BAAA"/>
<path d="M45.462 108.906C38.9388 108.906 33.8048 107.094 30.06 103.47C26.3152 99.846 24.4428 94.9234 24.4428 88.7022H34.137C34.137 92.3866 35.1336 95.2556 37.1268 97.3092C39.12 99.3024 41.8984 100.299 45.462 100.299C49.0256 100.299 51.804 99.3024 53.7972 97.3092C55.7904 95.2556 56.787 92.4168 56.787 88.7928V50.8314H41.2038V41.862H66.4812V88.7928C66.4812 95.014 64.5786 99.9366 60.7734 103.561C57.0286 107.124 51.9248 108.906 45.462 108.906ZM85.2 108V41.862H94.9848V99.0306H123.886V108H85.2Z" fill="#0D1016"/>
</svg>
