<svg width="3221" height="872" viewBox="0 0 3221 872" fill="none" xmlns="http://www.w3.org/2000/svg">
<g filter="url(#filter0_d_3547_1808)">
<path d="M971.422 199.467V0H1007.42V169.177H1094.94V199.467H971.422Z" fill="white"/>
<path d="M1190.61 202.389C1175.67 202.389 1162.76 199.272 1151.9 193.039C1141.09 186.741 1132.78 177.845 1126.96 166.352C1121.14 154.795 1118.23 141.192 1118.23 125.543C1118.23 110.155 1121.14 96.6493 1126.96 85.0267C1132.85 73.3392 1141.06 64.2489 1151.61 57.7558C1162.15 51.1978 1174.54 47.9188 1188.77 47.9188C1197.95 47.9188 1206.62 49.4122 1214.77 52.399C1222.99 55.3209 1230.23 59.8661 1236.51 66.0345C1242.85 72.2029 1247.83 80.0595 1251.45 89.6043C1255.07 99.0842 1256.88 110.382 1256.88 123.498V134.309H1134.72V110.544H1223.21C1223.15 103.792 1221.69 97.7856 1218.85 92.5262C1216 87.2019 1212.02 83.0138 1206.91 79.9621C1201.87 76.9104 1195.98 75.3845 1189.25 75.3845C1182.07 75.3845 1175.77 77.1376 1170.33 80.6439C1164.9 84.0852 1160.66 88.6303 1157.62 94.2793C1154.65 99.8633 1153.13 105.999 1153.06 112.687V133.432C1153.06 142.133 1154.65 149.6 1157.82 155.834C1160.99 162.002 1165.42 166.742 1171.11 170.053C1176.8 173.3 1183.46 174.923 1191.1 174.923C1196.21 174.923 1200.83 174.209 1204.97 172.78C1209.11 171.287 1212.7 169.112 1215.74 166.255C1218.78 163.398 1221.08 159.859 1222.63 155.639L1255.43 159.34C1253.36 168.041 1249.41 175.637 1243.59 182.13C1237.83 188.559 1230.46 193.558 1221.47 197.129C1212.48 200.636 1202.19 202.389 1190.61 202.389Z" fill="white"/>
<path d="M1361.02 49.8667V77.1376H1275.34V49.8667H1361.02ZM1296.5 14.025H1331.62V154.47C1331.62 159.21 1332.33 162.846 1333.75 165.378C1335.24 167.846 1337.18 169.534 1339.58 170.443C1341.97 171.352 1344.62 171.807 1347.53 171.807C1349.73 171.807 1351.74 171.644 1353.55 171.32C1355.42 170.995 1356.85 170.703 1357.82 170.443L1363.74 198.006C1361.86 198.655 1359.18 199.37 1355.68 200.149C1352.26 200.928 1348.05 201.382 1343.07 201.512C1334.27 201.772 1326.35 200.441 1319.3 197.519C1312.25 194.532 1306.65 189.922 1302.51 183.689C1298.44 177.455 1296.43 169.664 1296.5 160.314V14.025Z" fill="white"/>
<path d="M1427.12 0V19.8688C1427.12 25.5827 1426.02 31.5238 1423.82 37.6922C1421.69 43.7957 1418.74 49.6395 1414.99 55.2235C1411.24 60.7426 1406.97 65.4826 1402.18 69.4433L1385.88 58.8272C1389.44 53.4379 1392.55 47.6266 1395.2 41.3933C1397.85 35.095 1399.18 27.9851 1399.18 20.0636V0H1427.12Z" fill="white"/>
<path d="M1554.08 89.4095L1522.07 92.9158C1521.16 89.6692 1519.57 86.6175 1517.31 83.7606C1515.11 80.9036 1512.14 78.5986 1508.38 76.8454C1504.63 75.0923 1500.04 74.2157 1494.61 74.2157C1487.3 74.2157 1481.15 75.8065 1476.17 78.9881C1471.25 82.1697 1468.83 86.2928 1468.89 91.3574C1468.83 95.7078 1470.41 99.2465 1473.65 101.974C1476.95 104.701 1482.38 106.941 1489.95 108.694L1515.37 114.148C1529.47 117.2 1539.95 122.037 1546.81 128.66C1553.73 135.283 1557.22 143.951 1557.29 154.665C1557.22 164.08 1554.47 172.391 1549.04 179.598C1543.67 186.741 1536.2 192.325 1526.63 196.35C1517.05 200.376 1506.06 202.389 1493.64 202.389C1475.39 202.389 1460.71 198.558 1449.58 190.896C1438.46 183.169 1431.83 172.423 1429.69 158.658L1463.94 155.347C1465.5 162.099 1468.8 167.196 1473.84 170.638C1478.89 174.079 1485.45 175.8 1493.54 175.8C1501.88 175.8 1508.58 174.079 1513.62 170.638C1518.73 167.196 1521.29 162.943 1521.29 157.879C1521.29 153.593 1519.64 150.055 1516.34 147.263C1513.11 144.471 1508.06 142.328 1501.2 140.835L1475.78 135.478C1461.49 132.491 1450.91 127.459 1444.05 120.381C1437.2 113.239 1433.8 104.214 1433.87 93.3053C1433.8 84.0852 1436.29 76.0987 1441.34 69.3459C1446.45 62.5282 1453.53 57.2688 1462.59 53.5678C1471.71 49.8018 1482.22 47.9188 1494.12 47.9188C1511.59 47.9188 1525.33 51.6523 1535.36 59.1194C1545.45 66.5864 1551.69 76.6831 1554.08 89.4095Z" fill="white"/>
<path d="M1646.85 30.2902V0H1805.39V30.2902H1743.97V199.467H1708.27V30.2902H1646.85Z" fill="white"/>
<path d="M1857.01 202.486C1847.57 202.486 1839.06 200.798 1831.49 197.422C1823.99 193.98 1818.04 188.916 1813.64 182.228C1809.31 175.54 1807.14 167.294 1807.14 157.489C1807.14 149.048 1808.69 142.068 1811.8 136.549C1814.9 131.03 1819.14 126.615 1824.51 123.303C1829.88 119.992 1835.92 117.492 1842.65 115.804C1849.44 114.051 1856.46 112.785 1863.71 112.005C1872.44 111.096 1879.52 110.285 1884.96 109.57C1890.39 108.791 1894.34 107.623 1896.79 106.064C1899.32 104.441 1900.58 101.941 1900.58 98.5647V97.9804C1900.58 90.6432 1898.41 84.9618 1894.08 80.9361C1889.74 76.9104 1883.5 74.8975 1875.35 74.8975C1866.75 74.8975 1859.92 76.7805 1854.88 80.5465C1849.9 84.3125 1846.53 88.7602 1844.79 93.8897L1811.99 89.2147C1814.58 80.1244 1818.85 72.5275 1824.8 66.4241C1830.75 60.2556 1838.03 55.6456 1846.63 52.5938C1855.23 49.4772 1864.74 47.9188 1875.16 47.9188C1882.34 47.9188 1889.48 48.7629 1896.6 50.4511C1903.72 52.1393 1910.22 54.9313 1916.1 58.8272C1921.99 62.6581 1926.71 67.885 1930.27 74.5079C1933.89 81.1309 1935.7 89.4095 1935.7 99.3439V199.467H1901.94V178.916H1900.77C1898.64 183.072 1895.63 186.968 1891.75 190.604C1887.93 194.175 1883.11 197.065 1877.29 199.272C1871.53 201.415 1864.77 202.486 1857.01 202.486ZM1866.13 176.579C1873.18 176.579 1879.3 175.183 1884.47 172.391C1889.65 169.534 1893.62 165.768 1896.41 161.093C1899.25 156.418 1900.67 151.321 1900.67 145.802V128.173C1899.58 129.082 1897.7 129.926 1895.05 130.705C1892.46 131.485 1889.55 132.166 1886.31 132.751C1883.08 133.335 1879.88 133.855 1876.71 134.309C1873.54 134.764 1870.79 135.153 1868.46 135.478C1863.22 136.192 1858.53 137.361 1854.39 138.984C1850.25 140.607 1846.99 142.88 1844.59 145.802C1842.2 148.659 1841 152.36 1841 156.905C1841 163.398 1843.36 168.3 1848.08 171.612C1852.81 174.923 1858.82 176.579 1866.13 176.579Z" fill="white"/>
<path d="M2006.15 0V199.467H1971.02V0H2006.15Z" fill="white"/>
<path d="M2074.28 152.522L2074.19 109.96H2079.82L2133.38 49.8667H2174.42L2108.54 123.498H2101.26L2074.28 152.522ZM2042.27 199.467V0H2077.39V199.467H2042.27ZM2135.8 199.467L2087.29 131.387L2110.96 106.551L2177.82 199.467H2135.8Z" fill="white"/>
</g>
<g filter="url(#filter1_i_3547_1808)">
<path d="M1141.75 493.271C1139.75 476.535 1131.5 463.569 1117 454.376C1102.49 445.064 1084.24 440.409 1062.23 440.409C1046.48 440.409 1032.85 442.766 1021.35 447.481C1009.85 452.077 1000.91 458.442 994.532 466.575C988.281 474.59 985.155 483.724 985.155 493.979C985.155 502.583 987.28 510.008 991.531 516.255C995.907 522.502 1001.6 527.747 1008.6 531.99C1015.72 536.116 1023.35 539.593 1031.48 542.421C1039.6 545.132 1047.42 547.372 1054.92 549.14L1092.43 558.333C1104.68 561.162 1117.25 564.993 1130.12 569.825C1143 574.658 1154.94 581.023 1165.94 588.92C1176.95 596.817 1185.82 606.599 1192.57 618.268C1199.45 629.937 1202.89 643.904 1202.89 660.169C1202.89 680.678 1197.26 698.888 1186.01 714.8C1174.88 730.712 1158.69 743.265 1137.44 752.458C1116.31 761.652 1090.74 766.249 1060.73 766.249C1031.98 766.249 1007.1 761.947 986.093 753.342C965.088 744.738 948.647 732.539 936.77 716.745C924.892 700.833 918.328 681.975 917.078 660.169H975.215C976.341 673.253 980.842 684.155 988.718 692.877C996.72 701.481 1006.91 707.905 1019.29 712.148C1031.79 716.274 1045.48 718.336 1060.36 718.336C1076.74 718.336 1091.3 715.92 1104.06 711.087C1116.93 706.137 1127.06 699.301 1134.44 690.579C1141.81 681.739 1145.5 671.426 1145.5 659.639C1145.5 648.913 1142.25 640.132 1135.75 633.296C1129.37 626.46 1120.68 620.802 1109.68 616.323C1098.8 611.844 1086.49 607.896 1072.74 604.478L1027.35 592.809C996.595 584.912 972.215 573.302 954.211 557.98C936.332 542.657 927.393 522.384 927.393 497.161C927.393 476.299 933.394 458.089 945.397 442.53C957.399 426.972 973.653 414.891 994.157 406.286C1014.66 397.564 1037.79 393.203 1063.55 393.203C1089.55 393.203 1112.49 397.505 1132.37 406.11C1152.38 414.714 1168.13 426.559 1179.63 441.646C1191.14 456.615 1197.14 473.824 1197.64 493.271H1141.75Z" fill="white"/>
<path d="M1388.97 765.718C1361.97 765.718 1338.4 759.884 1318.27 748.215C1298.14 736.547 1282.51 720.222 1271.39 699.242C1260.26 678.262 1254.7 653.746 1254.7 625.694C1254.7 597.524 1260.26 572.89 1271.39 551.792C1282.51 530.694 1298.14 514.311 1318.27 502.642C1338.4 490.973 1361.97 485.139 1388.97 485.139C1415.98 485.139 1439.55 490.973 1459.68 502.642C1479.81 514.311 1495.44 530.694 1506.56 551.792C1517.69 572.89 1523.25 597.524 1523.25 625.694C1523.25 653.746 1517.69 678.262 1506.56 699.242C1495.44 720.222 1479.81 736.547 1459.68 748.215C1439.55 759.884 1415.98 765.718 1388.97 765.718ZM1389.16 721.342C1406.67 721.342 1421.17 716.981 1432.67 708.259C1444.17 699.537 1452.68 687.927 1458.18 673.429C1463.8 658.932 1466.62 642.961 1466.62 625.517C1466.62 608.191 1463.8 592.279 1458.18 577.781C1452.68 563.166 1444.17 551.438 1432.67 542.598C1421.17 533.758 1406.67 529.338 1389.16 529.338C1371.53 529.338 1356.91 533.758 1345.28 542.598C1333.78 551.438 1325.21 563.166 1319.59 577.781C1314.08 592.279 1311.33 608.191 1311.33 625.517C1311.33 642.961 1314.08 658.932 1319.59 673.429C1325.21 687.927 1333.78 699.537 1345.28 708.259C1356.91 716.981 1371.53 721.342 1389.16 721.342Z" fill="white"/>
<path d="M1641.92 398.154V760.238H1585.84V398.154H1641.92Z" fill="white"/>
<path d="M1899.83 647.617V488.675H1956.1V760.238H1900.96V713.209H1897.96C1891.33 727.707 1880.7 739.788 1866.08 749.453C1851.57 759 1833.51 763.774 1811.88 763.774C1793.37 763.774 1776.99 759.943 1762.74 752.282C1748.61 744.502 1737.49 733.011 1729.36 717.806C1721.36 702.601 1717.36 683.802 1717.36 661.407V488.675H1773.43V655.042C1773.43 673.547 1778.87 688.28 1789.75 699.242C1800.62 710.203 1814.75 715.684 1832.13 715.684C1842.63 715.684 1853.07 713.209 1863.45 708.259C1873.95 703.308 1882.64 695.824 1889.52 685.805C1896.52 675.787 1899.96 663.057 1899.83 647.617Z" fill="white"/>
<path d="M2165.91 488.675V531.106H2008.56V488.675H2165.91ZM2050.76 423.613H2106.83V680.501C2106.83 690.756 2108.46 698.476 2111.71 703.662C2114.96 708.73 2119.15 712.207 2124.27 714.093C2129.52 715.861 2135.21 716.745 2141.34 716.745C2145.84 716.745 2149.78 716.45 2153.15 715.861C2156.53 715.272 2159.15 714.8 2161.03 714.447L2171.16 758.116C2167.91 759.295 2163.28 760.473 2157.28 761.652C2151.28 762.948 2143.78 763.656 2134.77 763.774C2120.02 764.009 2106.27 761.534 2093.51 756.348C2080.76 751.162 2070.45 743.147 2062.57 732.303C2054.69 721.46 2050.76 707.846 2050.76 691.463V423.613Z" fill="white"/>
<path d="M2227.93 760.238V488.675H2284.01V760.238H2227.93ZM2256.25 446.773C2246.5 446.773 2238.12 443.709 2231.12 437.58C2224.25 431.333 2220.81 423.907 2220.81 415.303C2220.81 406.581 2224.25 399.156 2231.12 393.027C2238.12 386.78 2246.5 383.656 2256.25 383.656C2266 383.656 2274.32 386.78 2281.2 393.027C2288.2 399.156 2291.7 406.581 2291.7 415.303C2291.7 423.907 2288.2 431.333 2281.2 437.58C2274.32 443.709 2266 446.773 2256.25 446.773Z" fill="white"/>
<path d="M2480.78 765.718C2453.78 765.718 2430.21 759.884 2410.08 748.215C2389.95 736.547 2374.32 720.222 2363.2 699.242C2352.07 678.262 2346.51 653.746 2346.51 625.694C2346.51 597.524 2352.07 572.89 2363.2 551.792C2374.32 530.694 2389.95 514.311 2410.08 502.642C2430.21 490.973 2453.78 485.139 2480.78 485.139C2507.79 485.139 2531.36 490.973 2551.49 502.642C2571.62 514.311 2587.24 530.694 2598.37 551.792C2609.5 572.89 2615.06 597.524 2615.06 625.694C2615.06 653.746 2609.5 678.262 2598.37 699.242C2587.24 720.222 2571.62 736.547 2551.49 748.215C2531.36 759.884 2507.79 765.718 2480.78 765.718ZM2480.97 721.342C2498.48 721.342 2512.98 716.981 2524.48 708.259C2535.98 699.537 2544.49 687.927 2549.99 673.429C2555.61 658.932 2558.43 642.961 2558.43 625.517C2558.43 608.191 2555.61 592.279 2549.99 577.781C2544.49 563.166 2535.98 551.438 2524.48 542.598C2512.98 533.758 2498.48 529.338 2480.97 529.338C2463.34 529.338 2448.72 533.758 2437.09 542.598C2425.59 551.438 2417.02 563.166 2411.39 577.781C2405.89 592.279 2403.14 608.191 2403.14 625.517C2403.14 642.961 2405.89 658.932 2411.39 673.429C2417.02 687.927 2425.59 699.537 2437.09 708.259C2448.72 716.981 2463.34 721.342 2480.97 721.342Z" fill="white"/>
<path d="M2733.73 598.997V760.238H2677.65V488.675H2731.48V532.874H2735.04C2741.67 518.495 2752.04 506.944 2766.17 498.222C2780.43 489.5 2798.37 485.139 2820 485.139C2839.63 485.139 2856.82 489.028 2871.57 496.807C2886.32 504.469 2897.76 515.902 2905.89 531.106C2914.02 546.311 2918.08 565.111 2918.08 587.505V760.238H2862.01V593.87C2862.01 574.186 2856.57 558.805 2845.69 547.725C2834.81 536.528 2819.87 530.93 2800.87 530.93C2787.86 530.93 2776.3 533.582 2766.17 538.886C2756.17 544.189 2748.23 551.969 2742.36 562.223C2736.6 572.359 2733.73 584.617 2733.73 598.997Z" fill="white"/>
<path d="M3209.14 554.974L3158.32 563.461C3156.19 557.332 3152.82 551.497 3148.19 545.957C3143.69 540.418 3137.56 535.88 3129.81 532.344C3122.06 528.808 3112.37 527.04 3100.74 527.04C3084.87 527.04 3071.61 530.399 3060.99 537.118C3050.36 543.718 3045.04 552.263 3045.04 562.753C3045.04 571.829 3048.61 579.137 3055.73 584.676C3062.86 590.216 3074.36 594.754 3090.24 598.29L3136 608.191C3162.51 613.966 3182.26 622.865 3195.26 634.887C3208.27 646.91 3214.77 662.527 3214.77 681.739C3214.77 698.004 3209.77 712.502 3199.76 725.231C3189.89 737.843 3176.07 747.744 3158.32 754.934C3140.69 762.123 3120.25 765.718 3096.99 765.718C3064.74 765.718 3038.42 759.236 3018.04 746.27C2997.66 733.187 2985.16 714.623 2980.53 690.579L3034.73 682.8C3038.11 696.119 3045.04 706.196 3055.55 713.032C3066.05 719.751 3079.74 723.11 3096.62 723.11C3115 723.11 3129.69 719.515 3140.69 712.325C3151.69 705.017 3157.19 696.119 3157.19 685.628C3157.19 677.142 3153.82 670.011 3147.07 664.236C3140.44 658.46 3130.25 654.099 3116.5 651.153L3067.74 641.075C3040.86 635.3 3020.98 626.106 3008.1 613.495C2995.35 600.883 2988.97 584.912 2988.97 565.582C2988.97 549.552 2993.72 535.526 3003.22 523.504C3012.73 511.482 3025.85 502.111 3042.61 495.393C3059.36 488.557 3078.55 485.139 3100.18 485.139C3131.31 485.139 3155.82 491.503 3173.7 504.233C3191.58 516.845 3203.39 533.758 3209.14 554.974Z" fill="white"/>
</g>
<g filter="url(#filter2_d_3547_1808)">
<path d="M917.078 866.43L3217.97 866.43" stroke="#BD0A0A" stroke-width="5"/>
</g>
<g filter="url(#filter3_d_3547_1808)">
<path d="M153.496 637.133C153.758 634.476 155.827 632.455 158.284 632.455L337.201 632.457C341.474 632.457 343.576 638.08 340.527 641.353L140.373 856.174C137.165 859.617 131.778 856.816 132.259 851.956L153.496 637.133Z" fill="#BD0A0A"/>
<path d="M0 173C0 161.954 8.95431 153 20 153H697C708.046 153 717 161.954 717 173V649.957C717 661.003 708.046 669.957 697 669.957H356.175H20C8.95432 669.957 0 661.003 0 649.957V173Z" fill="#BD0A0A"/>
<g filter="url(#filter4_i_3547_1808)">
<path d="M617.457 519.992C617.457 533.244 606.713 543.987 593.459 543.987C580.205 543.987 569.461 533.244 569.461 519.992C569.461 506.741 580.205 495.998 593.459 495.998C606.713 495.998 617.457 506.741 617.457 519.992Z" fill="white"/>
</g>
<g filter="url(#filter5_i_3547_1808)">
<path d="M134.289 275.475C134.289 274.37 135.184 273.475 136.289 273.475H191.68C192.784 273.475 193.68 274.37 193.68 275.475V492.035C193.68 493.139 194.575 494.035 195.68 494.035H318.946C320.05 494.035 320.946 494.93 320.946 496.035V542.933C320.946 544.038 320.05 544.933 318.946 544.933H136.289C135.184 544.933 134.289 544.038 134.289 542.933V275.475Z" fill="white"/>
</g>
<g filter="url(#filter6_i_3547_1808)">
<path d="M340.812 275.475C340.812 274.37 341.708 273.475 342.813 273.475H566.899C568.004 273.475 568.899 274.37 568.899 275.475V322.153C568.899 323.257 568.004 324.153 566.899 324.153H486.433C485.324 324.153 484.427 325.054 484.433 326.163L485.549 541.748C485.555 542.856 484.658 543.758 483.55 543.758H427.289C426.185 543.758 425.289 542.862 425.289 541.758V326.153C425.289 325.048 424.394 324.153 423.289 324.153H342.813C341.708 324.153 340.812 323.257 340.812 322.153V275.475Z" fill="white"/>
</g>
</g>
<defs>
<filter id="filter0_d_3547_1808" x="971.422" y="0" width="1208.39" height="204.486" filterUnits="userSpaceOnUse" color-interpolation-filters="sRGB">
<feFlood flood-opacity="0" result="BackgroundImageFix"/>
<feColorMatrix in="SourceAlpha" type="matrix" values="0 0 0 0 0 0 0 0 0 0 0 0 0 0 0 0 0 0 127 0" result="hardAlpha"/>
<feOffset dx="1" dy="1"/>
<feGaussianBlur stdDeviation="0.5"/>
<feComposite in2="hardAlpha" operator="out"/>
<feColorMatrix type="matrix" values="0 0 0 0 0.101961 0 0 0 0 0.0823529 0 0 0 0 0.247059 0 0 0 0.19 0"/>
<feBlend mode="normal" in2="BackgroundImageFix" result="effect1_dropShadow_3547_1808"/>
<feBlend mode="normal" in="SourceGraphic" in2="effect1_dropShadow_3547_1808" result="shape"/>
</filter>
<filter id="filter1_i_3547_1808" x="917.078" y="383.656" width="2298.69" height="383.592" filterUnits="userSpaceOnUse" color-interpolation-filters="sRGB">
<feFlood flood-opacity="0" result="BackgroundImageFix"/>
<feBlend mode="normal" in="SourceGraphic" in2="BackgroundImageFix" result="shape"/>
<feColorMatrix in="SourceAlpha" type="matrix" values="0 0 0 0 0 0 0 0 0 0 0 0 0 0 0 0 0 0 127 0" result="hardAlpha"/>
<feOffset dx="2" dy="2"/>
<feGaussianBlur stdDeviation="0.5"/>
<feComposite in2="hardAlpha" operator="arithmetic" k2="-1" k3="1"/>
<feColorMatrix type="matrix" values="0 0 0 0 0 0 0 0 0 0 0 0 0 0 0 0 0 0 0.75 0"/>
<feBlend mode="normal" in2="shape" result="effect1_innerShadow_3547_1808"/>
</filter>
<filter id="filter2_d_3547_1808" x="917.078" y="863.93" width="2303.89" height="8" filterUnits="userSpaceOnUse" color-interpolation-filters="sRGB">
<feFlood flood-opacity="0" result="BackgroundImageFix"/>
<feColorMatrix in="SourceAlpha" type="matrix" values="0 0 0 0 0 0 0 0 0 0 0 0 0 0 0 0 0 0 127 0" result="hardAlpha"/>
<feOffset dx="2" dy="2"/>
<feGaussianBlur stdDeviation="0.5"/>
<feComposite in2="hardAlpha" operator="out"/>
<feColorMatrix type="matrix" values="0 0 0 0 0 0 0 0 0 0 0 0 0 0 0 0 0 0 0.5 0"/>
<feBlend mode="normal" in2="BackgroundImageFix" result="effect1_dropShadow_3547_1808"/>
<feBlend mode="normal" in="SourceGraphic" in2="effect1_dropShadow_3547_1808" result="shape"/>
</filter>
<filter id="filter3_d_3547_1808" x="0" y="153" width="720" height="707.701" filterUnits="userSpaceOnUse" color-interpolation-filters="sRGB">
<feFlood flood-opacity="0" result="BackgroundImageFix"/>
<feColorMatrix in="SourceAlpha" type="matrix" values="0 0 0 0 0 0 0 0 0 0 0 0 0 0 0 0 0 0 127 0" result="hardAlpha"/>
<feOffset dx="2" dy="2"/>
<feGaussianBlur stdDeviation="0.5"/>
<feComposite in2="hardAlpha" operator="out"/>
<feColorMatrix type="matrix" values="0 0 0 0 0 0 0 0 0 0 0 0 0 0 0 0 0 0 0.5 0"/>
<feBlend mode="normal" in2="BackgroundImageFix" result="effect1_dropShadow_3547_1808"/>
<feBlend mode="normal" in="SourceGraphic" in2="effect1_dropShadow_3547_1808" result="shape"/>
</filter>
<filter id="filter4_i_3547_1808" x="569.461" y="495.998" width="48.9922" height="48.9883" filterUnits="userSpaceOnUse" color-interpolation-filters="sRGB">
<feFlood flood-opacity="0" result="BackgroundImageFix"/>
<feBlend mode="normal" in="SourceGraphic" in2="BackgroundImageFix" result="shape"/>
<feColorMatrix in="SourceAlpha" type="matrix" values="0 0 0 0 0 0 0 0 0 0 0 0 0 0 0 0 0 0 127 0" result="hardAlpha"/>
<feOffset dx="2" dy="2"/>
<feGaussianBlur stdDeviation="0.5"/>
<feComposite in2="hardAlpha" operator="arithmetic" k2="-1" k3="1"/>
<feColorMatrix type="matrix" values="0 0 0 0 0 0 0 0 0 0 0 0 0 0 0 0 0 0 0.75 0"/>
<feBlend mode="normal" in2="shape" result="effect1_innerShadow_3547_1808"/>
</filter>
<filter id="filter5_i_3547_1808" x="134.289" y="273.475" width="187.656" height="272.459" filterUnits="userSpaceOnUse" color-interpolation-filters="sRGB">
<feFlood flood-opacity="0" result="BackgroundImageFix"/>
<feBlend mode="normal" in="SourceGraphic" in2="BackgroundImageFix" result="shape"/>
<feColorMatrix in="SourceAlpha" type="matrix" values="0 0 0 0 0 0 0 0 0 0 0 0 0 0 0 0 0 0 127 0" result="hardAlpha"/>
<feOffset dx="2" dy="2"/>
<feGaussianBlur stdDeviation="0.5"/>
<feComposite in2="hardAlpha" operator="arithmetic" k2="-1" k3="1"/>
<feColorMatrix type="matrix" values="0 0 0 0 0 0 0 0 0 0 0 0 0 0 0 0 0 0 0.75 0"/>
<feBlend mode="normal" in2="shape" result="effect1_innerShadow_3547_1808"/>
</filter>
<filter id="filter6_i_3547_1808" x="340.812" y="273.475" width="229.086" height="271.283" filterUnits="userSpaceOnUse" color-interpolation-filters="sRGB">
<feFlood flood-opacity="0" result="BackgroundImageFix"/>
<feBlend mode="normal" in="SourceGraphic" in2="BackgroundImageFix" result="shape"/>
<feColorMatrix in="SourceAlpha" type="matrix" values="0 0 0 0 0 0 0 0 0 0 0 0 0 0 0 0 0 0 127 0" result="hardAlpha"/>
<feOffset dx="2" dy="2"/>
<feGaussianBlur stdDeviation="0.5"/>
<feComposite in2="hardAlpha" operator="arithmetic" k2="-1" k3="1"/>
<feColorMatrix type="matrix" values="0 0 0 0 0 0 0 0 0 0 0 0 0 0 0 0 0 0 0.75 0"/>
<feBlend mode="normal" in2="shape" result="effect1_innerShadow_3547_1808"/>
</filter>
</defs>
</svg>
