<svg width="124" height="124" viewBox="0 0 124 124" fill="none" xmlns="http://www.w3.org/2000/svg">
<path d="M31 46.25H92" stroke="#CE0000" stroke-width="3.05"/>
<path d="M31 76.75H92" stroke="#CE0000" stroke-width="3.05"/>
<path d="M46.25 31V92" stroke="#CE0000" stroke-width="3.05"/>
<path d="M76.75 31V92" stroke="#CE0000" stroke-width="3.05"/>
<path opacity="0.8" d="M62 122C95.1371 122 122 95.1371 122 62C122 28.8629 95.1371 2 62 2C28.8629 2 2 28.8629 2 62C2 95.1371 28.8629 122 62 122Z" stroke="#CE0000" stroke-width="4" stroke-dasharray="10 5"/>
<path d="M31 46.25H92" stroke="#CE0000" stroke-width="3.05"/>
<path d="M31 76.75H92" stroke="#CE0000" stroke-width="3.05"/>
<path d="M46.25 31V92" stroke="#CE0000" stroke-width="3.05"/>
<path d="M76.75 31V92" stroke="#CE0000" stroke-width="3.05"/>
<path opacity="0.8" d="M62 122C95.1371 122 122 95.1371 122 62C122 28.8629 95.1371 2 62 2C28.8629 2 2 28.8629 2 62C2 95.1371 28.8629 122 62 122Z" stroke="#CE0000" stroke-width="4" stroke-dasharray="10 5"/>
</svg>
