<svg width="191" height="58" viewBox="0 0 191 58" fill="none" xmlns="http://www.w3.org/2000/svg">
<g filter="url(#filter0_i_3715_22)">
<path d="M51 12.3247V0H53.2242V10.4531H58.632V12.3247H51Z" fill="white"/>
<path d="M64.5433 12.5053C63.6201 12.5053 62.8227 12.3127 62.1512 11.9275C61.4837 11.5384 60.9702 10.9887 60.6104 10.2786C60.2507 9.56449 60.0709 8.72399 60.0709 7.75711C60.0709 6.80628 60.2507 5.97179 60.6104 5.25365C60.9741 4.5315 61.4817 3.96983 62.1332 3.56863C62.7847 3.16342 63.5501 2.96082 64.4294 2.96082C64.997 2.96082 65.5326 3.0531 66.0362 3.23764C66.5438 3.41818 66.9914 3.69902 67.3791 4.08015C67.7708 4.46129 68.0786 4.94674 68.3024 5.53649C68.5262 6.12224 68.6381 6.82032 68.6381 7.63073V8.29872H61.0901V6.83035H66.5578C66.5538 6.4131 66.4638 6.042 66.288 5.71703C66.1121 5.38805 65.8663 5.12928 65.5505 4.94072C65.2388 4.75216 64.8751 4.65788 64.4594 4.65788C64.0158 4.65788 63.6261 4.7662 63.2903 4.98284C62.9546 5.19548 62.6928 5.47631 62.5049 5.82535C62.3211 6.17038 62.2272 6.54951 62.2232 6.96274V8.24456C62.2232 8.78216 62.3211 9.24354 62.5169 9.62868C62.7128 10.0098 62.9866 10.3027 63.3383 10.5073C63.69 10.7079 64.1017 10.8082 64.5733 10.8082C64.8891 10.8082 65.1748 10.7641 65.4306 10.6758C65.6864 10.5835 65.9083 10.4491 66.0961 10.2726C66.284 10.0961 66.4259 9.87742 66.5218 9.61665L68.5482 9.84533C68.4203 10.3829 68.1765 10.8523 67.8168 11.2535C67.461 11.6507 67.0054 11.9596 66.4498 12.1803C65.8943 12.3969 65.2588 12.5053 64.5433 12.5053Z" fill="white"/>
<path d="M75.0726 3.08118V4.7662H69.7787V3.08118H75.0726ZM71.0857 0.866582H73.256V9.54443C73.256 9.8373 73.2999 10.062 73.3879 10.2184C73.4798 10.3709 73.5997 10.4752 73.7476 10.5314C73.8955 10.5875 74.0594 10.6156 74.2392 10.6156C74.3751 10.6156 74.499 10.6056 74.6109 10.5855C74.7268 10.5655 74.8148 10.5474 74.8747 10.5314L75.2404 12.2344C75.1245 12.2746 74.9586 12.3187 74.7428 12.3668C74.531 12.415 74.2712 12.4431 73.9634 12.4511C73.4199 12.4671 72.9302 12.3849 72.4946 12.2044C72.0589 12.0198 71.7132 11.735 71.4574 11.3498C71.2056 10.9647 71.0817 10.4832 71.0857 9.90551V0.866582Z" fill="white"/>
<path d="M79.1568 0V1.22766C79.1568 1.58071 79.0889 1.9478 78.953 2.32894C78.8211 2.70606 78.6392 3.06714 78.4074 3.41216C78.1756 3.75318 77.9118 4.04605 77.616 4.29078L76.6088 3.63483C76.8287 3.30184 77.0205 2.94277 77.1844 2.55762C77.3483 2.16846 77.4302 1.72915 77.4302 1.23969V0H79.1568Z" fill="white"/>
<path d="M87.0017 5.52446L85.0232 5.7411C84.9673 5.5405 84.8693 5.35194 84.7295 5.17542C84.5936 4.99889 84.4097 4.85647 84.1779 4.74814C83.9461 4.63982 83.6623 4.58566 83.3266 4.58566C82.8749 4.58566 82.4952 4.68395 82.1874 4.88054C81.8837 5.07712 81.7338 5.33188 81.7378 5.64482C81.7338 5.91362 81.8317 6.13227 82.0316 6.30077C82.2354 6.46927 82.5711 6.60768 83.0388 6.71601L84.6095 7.05301C85.4809 7.24157 86.1284 7.54046 86.552 7.94968C86.9797 8.3589 87.1955 8.8945 87.1995 9.55647C87.1955 10.1382 87.0256 10.6517 86.6899 11.0971C86.3582 11.5384 85.8965 11.8834 85.305 12.1321C84.7135 12.3809 84.034 12.5053 83.2666 12.5053C82.1395 12.5053 81.2322 12.2685 80.5447 11.7951C79.8573 11.3177 79.4476 10.6537 79.3157 9.8032L81.432 9.59859C81.528 10.0158 81.7318 10.3308 82.0436 10.5434C82.3553 10.756 82.761 10.8624 83.2606 10.8624C83.7762 10.8624 84.1899 10.756 84.5016 10.5434C84.8174 10.3308 84.9753 10.068 84.9753 9.75506C84.9753 9.49027 84.8733 9.27162 84.6695 9.0991C84.4697 8.92659 84.1579 8.7942 83.7342 8.70192L82.1635 8.37094C81.2802 8.18639 80.6267 7.87546 80.203 7.43816C79.7793 6.99684 79.5695 6.43918 79.5735 5.76517C79.5695 5.19548 79.7234 4.70201 80.0351 4.28476C80.3509 3.86351 80.7886 3.53854 81.3481 3.30986C81.9117 3.07717 82.5612 2.96082 83.2966 2.96082C84.3757 2.96082 85.2251 3.19151 85.8446 3.65288C86.4681 4.11426 86.8538 4.73811 87.0017 5.52446Z" fill="white"/>
<path d="M92.7332 1.87158V0H102.529V1.87158H98.7344V12.3247H96.5282V1.87158H92.7332Z" fill="white"/>
<path d="M105.719 12.5113C105.135 12.5113 104.61 12.407 104.142 12.1983C103.679 11.9857 103.311 11.6728 103.039 11.2595C102.771 10.8463 102.637 10.3368 102.637 9.73099C102.637 9.20943 102.733 8.77815 102.925 8.43713C103.117 8.09612 103.379 7.8233 103.711 7.6187C104.042 7.41409 104.416 7.25963 104.832 7.15531C105.251 7.04699 105.685 6.96876 106.133 6.92062C106.672 6.86445 107.11 6.8143 107.446 6.77017C107.781 6.72202 108.025 6.64981 108.177 6.55352C108.333 6.45322 108.411 6.29876 108.411 6.09014V6.05403C108.411 5.60068 108.277 5.24964 108.009 5.0009C107.741 4.75216 107.356 4.62779 106.852 4.62779C106.32 4.62779 105.899 4.74413 105.587 4.97683C105.279 5.20952 105.071 5.48434 104.964 5.80128L102.937 5.51242C103.097 4.95075 103.361 4.48135 103.728 4.10423C104.096 3.72309 104.546 3.43824 105.077 3.24968C105.609 3.05711 106.197 2.96082 106.84 2.96082C107.284 2.96082 107.725 3.01298 108.165 3.11729C108.605 3.2216 109.006 3.39411 109.37 3.63483C109.734 3.87153 110.026 4.1945 110.245 4.60371C110.469 5.01293 110.581 5.52446 110.581 6.13829V12.3247H108.495V11.0549H108.423C108.291 11.3117 108.105 11.5524 107.865 11.7771C107.629 11.9977 107.332 12.1763 106.972 12.3127C106.616 12.4451 106.199 12.5113 105.719 12.5113ZM106.282 10.9105C106.718 10.9105 107.096 10.8242 107.416 10.6517C107.735 10.4752 107.981 10.2425 108.153 9.95365C108.329 9.66479 108.417 9.34985 108.417 9.00884V7.91959C108.349 7.97576 108.233 8.02791 108.069 8.07606C107.909 8.1242 107.729 8.16633 107.53 8.20243C107.33 8.23854 107.132 8.27064 106.936 8.29872C106.74 8.3268 106.57 8.35088 106.426 8.37094C106.103 8.41507 105.813 8.48728 105.557 8.58758C105.301 8.68788 105.099 8.8283 104.952 9.00884C104.804 9.18536 104.73 9.41404 104.73 9.69488C104.73 10.0961 104.876 10.399 105.167 10.6036C105.459 10.8082 105.831 10.9105 106.282 10.9105Z" fill="white"/>
<path d="M114.934 0V12.3247H112.763V0H114.934Z" fill="white"/>
<path d="M119.144 9.42407L119.138 6.79424H119.486L122.795 3.08118H125.331L121.26 7.63073H120.811L119.144 9.42407ZM117.165 12.3247V0H119.336V12.3247H117.165ZM122.945 12.3247L119.947 8.11818L121.41 6.58361L125.541 12.3247H122.945Z" fill="white"/>
</g>
<g filter="url(#filter1_i_3715_22)">
<path d="M61.9329 27.1167C61.8093 26.0825 61.2994 25.2814 60.4033 24.7134C59.5072 24.138 58.3793 23.8504 57.0197 23.8504C56.0463 23.8504 55.2043 23.996 54.4936 24.2873C53.7828 24.5714 53.2305 24.9646 52.8365 25.4671C52.4503 25.9624 52.2571 26.5268 52.2571 27.1604C52.2571 27.692 52.3885 28.1508 52.6511 28.5368C52.9215 28.9228 53.273 29.2469 53.7056 29.5091C54.1459 29.764 54.6172 29.9788 55.1193 30.1536C55.6214 30.3211 56.1043 30.4595 56.5678 30.5687L58.8853 31.1367C59.6424 31.3115 60.4188 31.5482 61.2145 31.8468C62.0101 32.1454 62.7479 32.5387 63.4277 33.0266C64.1075 33.5146 64.656 34.119 65.0732 34.84C65.4981 35.561 65.7105 36.424 65.7105 37.429C65.7105 38.6962 65.3629 39.8214 64.6676 40.8046C63.9801 41.7877 62.9796 42.5633 61.6664 43.1314C60.3608 43.6994 58.781 43.9835 56.927 43.9835C55.1502 43.9835 53.6129 43.7176 52.3151 43.186C51.0172 42.6544 50.0014 41.9006 49.2675 40.9247C48.5336 39.9416 48.128 38.7763 48.0508 37.429H51.643C51.7125 38.2374 51.9906 38.911 52.4773 39.45C52.9717 39.9816 53.6013 40.3785 54.3661 40.6407C55.1386 40.8956 55.9845 41.023 56.9038 41.023C57.9158 41.023 58.8158 40.8737 59.6038 40.5752C60.3994 40.2693 61.0252 39.8469 61.481 39.308C61.9368 38.7618 62.1646 38.1245 62.1646 37.3962C62.1646 36.7335 61.9638 36.191 61.5621 35.7686C61.1681 35.3462 60.6312 34.9966 59.9514 34.7198C59.2793 34.4431 58.5184 34.1991 57.6686 33.9879L54.8644 33.2669C52.964 32.779 51.4576 32.0616 50.3452 31.1149C49.2405 30.1681 48.6881 28.9155 48.6881 27.357C48.6881 26.068 49.0589 24.9428 49.8005 23.9815C50.5421 23.0201 51.5464 22.2737 52.8133 21.742C54.0803 21.2031 55.5094 20.9337 57.1008 20.9337C58.7076 20.9337 60.1252 21.1995 61.3535 21.7311C62.5895 22.2627 63.5629 22.9947 64.2736 23.9268C64.9843 24.8518 65.3551 25.915 65.386 27.1167H61.9329Z" fill="white"/>
<path d="M77.2084 43.9507C75.5398 43.9507 74.0836 43.5902 72.8398 42.8692C71.5961 42.1482 70.6305 41.1396 69.9429 39.8432C69.2554 38.5469 68.9116 37.0321 68.9116 35.2988C68.9116 33.5582 69.2554 32.0362 69.9429 30.7326C70.6305 29.4289 71.5961 28.4166 72.8398 27.6957C74.0836 26.9747 75.5398 26.6142 77.2084 26.6142C78.8771 26.6142 80.3332 26.9747 81.577 27.6957C82.8207 28.4166 83.7864 29.4289 84.4739 30.7326C85.1615 32.0362 85.5052 33.5582 85.5052 35.2988C85.5052 37.0321 85.1615 38.5469 84.4739 39.8432C83.7864 41.1396 82.8207 42.1482 81.577 42.8692C80.3332 43.5902 78.8771 43.9507 77.2084 43.9507ZM77.22 41.2087C78.3015 41.2087 79.1977 40.9393 79.9084 40.4004C80.6191 39.8614 81.1444 39.1441 81.4843 38.2483C81.8319 37.3525 82.0057 36.3657 82.0057 35.2879C82.0057 34.2173 81.8319 33.2342 81.4843 32.3384C81.1444 31.4353 80.6191 30.7107 79.9084 30.1645C79.1977 29.6183 78.3015 29.3452 77.22 29.3452C76.1308 29.3452 75.2269 29.6183 74.5085 30.1645C73.7978 30.7107 73.2686 31.4353 72.921 32.3384C72.5811 33.2342 72.4111 34.2173 72.4111 35.2879C72.4111 36.3657 72.5811 37.3525 72.921 38.2483C73.2686 39.1441 73.7978 39.8614 74.5085 40.4004C75.2269 40.9393 76.1308 41.2087 77.22 41.2087Z" fill="white"/>
<path d="M92.8374 21.2395V43.612H89.3726V21.2395H92.8374Z" fill="white"/>
<path d="M108.773 36.6534V26.8327H112.25V43.612H108.843V40.7062H108.658C108.248 41.602 107.591 42.3485 106.688 42.9457C105.792 43.5356 104.675 43.8305 103.339 43.8305C102.195 43.8305 101.183 43.5938 100.303 43.1205C99.4298 42.6398 98.7423 41.9297 98.2402 40.9903C97.7458 40.0508 97.4986 38.8892 97.4986 37.5055V26.8327H100.963V37.1122C100.963 38.2556 101.299 39.1659 101.971 39.8432C102.644 40.5205 103.516 40.8592 104.59 40.8592C105.239 40.8592 105.884 40.7062 106.525 40.4004C107.174 40.0945 107.711 39.632 108.136 39.013C108.569 38.394 108.781 37.6074 108.773 36.6534Z" fill="white"/>
<path d="M125.214 26.8327V29.4544H115.491V26.8327H125.214ZM118.099 22.8126H121.563V38.6853C121.563 39.3189 121.664 39.7959 121.865 40.1163C122.066 40.4295 122.324 40.6443 122.641 40.7609C122.965 40.8701 123.317 40.9247 123.696 40.9247C123.974 40.9247 124.217 40.9065 124.426 40.8701C124.634 40.8337 124.796 40.8046 124.912 40.7827L125.538 43.481C125.337 43.5538 125.051 43.6266 124.68 43.6994C124.31 43.7796 123.846 43.8232 123.29 43.8305C122.378 43.8451 121.529 43.6922 120.741 43.3717C119.953 43.0513 119.315 42.5561 118.829 41.886C118.342 41.216 118.099 40.3749 118.099 39.3626V22.8126Z" fill="white"/>
<path d="M129.046 43.612V26.8327H132.511V43.612H129.046ZM130.796 24.2436C130.193 24.2436 129.676 24.0543 129.243 23.6756C128.818 23.2896 128.606 22.8308 128.606 22.2992C128.606 21.7602 128.818 21.3014 129.243 20.9227C129.676 20.5367 130.193 20.3438 130.796 20.3438C131.398 20.3438 131.912 20.5367 132.337 20.9227C132.77 21.3014 132.986 21.7602 132.986 22.2992C132.986 22.8308 132.77 23.2896 132.337 23.6756C131.912 24.0543 131.398 24.2436 130.796 24.2436Z" fill="white"/>
<path d="M144.669 43.9507C143.001 43.9507 141.544 43.5902 140.301 42.8692C139.057 42.1482 138.091 41.1396 137.404 39.8432C136.716 38.5469 136.373 37.0321 136.373 35.2988C136.373 33.5582 136.716 32.0362 137.404 30.7326C138.091 29.4289 139.057 28.4166 140.301 27.6957C141.544 26.9747 143.001 26.6142 144.669 26.6142C146.338 26.6142 147.794 26.9747 149.038 27.6957C150.282 28.4166 151.247 29.4289 151.935 30.7326C152.622 32.0362 152.966 33.5582 152.966 35.2988C152.966 37.0321 152.622 38.5469 151.935 39.8432C151.247 41.1396 150.282 42.1482 149.038 42.8692C147.794 43.5902 146.338 43.9507 144.669 43.9507ZM144.681 41.2087C145.762 41.2087 146.659 40.9393 147.369 40.4004C148.08 39.8614 148.605 39.1441 148.945 38.2483C149.293 37.3525 149.467 36.3657 149.467 35.2879C149.467 34.2173 149.293 33.2342 148.945 32.3384C148.605 31.4353 148.08 30.7107 147.369 30.1645C146.659 29.6183 145.762 29.3452 144.681 29.3452C143.592 29.3452 142.688 29.6183 141.969 30.1645C141.259 30.7107 140.729 31.4353 140.382 32.3384C140.042 33.2342 139.872 34.2173 139.872 35.2879C139.872 36.3657 140.042 37.3525 140.382 38.2483C140.729 39.1441 141.259 39.8614 141.969 40.4004C142.688 40.9393 143.592 41.2087 144.681 41.2087Z" fill="white"/>
<path d="M160.298 33.6493V43.612H156.834V26.8327H160.159V29.5637H160.379C160.789 28.6752 161.43 27.9615 162.303 27.4226C163.184 26.8836 164.292 26.6142 165.629 26.6142C166.841 26.6142 167.904 26.8545 168.815 27.3352C169.727 27.8085 170.434 28.515 170.936 29.4544C171.438 30.3939 171.689 31.5555 171.689 32.9392V43.612H168.224V33.3325C168.224 32.1163 167.888 31.1659 167.216 30.4813C166.544 29.7894 165.621 29.4435 164.447 29.4435C163.643 29.4435 162.929 29.6074 162.303 29.9351C161.685 30.2628 161.194 30.7435 160.831 31.3771C160.476 32.0034 160.298 32.7608 160.298 33.6493Z" fill="white"/>
<path d="M189.673 30.9292L186.533 31.4535C186.402 31.0748 186.193 30.7143 185.907 30.3721C185.629 30.0298 185.251 29.7494 184.772 29.5309C184.293 29.3124 183.694 29.2032 182.975 29.2032C181.994 29.2032 181.176 29.4107 180.519 29.8259C179.862 30.2337 179.534 30.7617 179.534 31.4098C179.534 31.9706 179.754 32.4221 180.194 32.7644C180.635 33.1067 181.345 33.3871 182.327 33.6056L185.154 34.2173C186.792 34.5742 188.012 35.124 188.816 35.8669C189.619 36.6097 190.021 37.5747 190.021 38.7618C190.021 39.7668 189.712 40.6625 189.094 41.4491C188.484 42.2283 187.63 42.8401 186.533 43.2843C185.444 43.7286 184.181 43.9507 182.744 43.9507C180.751 43.9507 179.124 43.5501 177.865 42.749C176.606 41.9407 175.834 40.7936 175.548 39.308L178.897 38.8273C179.105 39.6502 179.534 40.2729 180.183 40.6953C180.832 41.1104 181.678 41.318 182.721 41.318C183.856 41.318 184.764 41.0959 185.444 40.6516C186.123 40.2001 186.463 39.6502 186.463 39.0021C186.463 38.4777 186.255 38.0371 185.838 37.6803C185.428 37.3234 184.799 37.054 183.949 36.8719L180.936 36.2492C179.275 35.8924 178.047 35.3243 177.251 34.5451C176.463 33.7658 176.069 32.779 176.069 31.5846C176.069 30.5942 176.363 29.7275 176.95 28.9847C177.537 28.2419 178.348 27.6629 179.383 27.2478C180.418 26.8254 181.604 26.6142 182.941 26.6142C184.864 26.6142 186.378 27.0074 187.483 27.794C188.588 28.5732 189.318 29.6183 189.673 30.9292Z" fill="white"/>
</g>
<path d="M48 51.5L118 51.4995L189.5 51.5" stroke="#C41E3A" stroke-width="0.659536"/>
<path d="M0.011748 23.0117C0.00527089 21.9026 0.902581 21 2.01171 21H18.0539H37C38.1046 21 39 21.8954 39 23V45.0274C39 46.132 38.1046 47.0274 37 47.0274H19.1327C18.4594 47.0274 17.8312 47.3663 17.4614 47.929L11.5 57C11.3678 57.2645 10.97 57.1782 10.9593 56.8827L10.6703 48.9545C10.631 47.879 9.7478 47.0274 8.67158 47.0274H2.00857C0.900656 47.0274 0.00385008 46.1267 0.0085861 45.0188L0.0642388 32L0.011748 23.0117Z" fill="#C41E3A"/>
<g filter="url(#filter2_i_3715_22)">
<path d="M34 40.5C34 41.3284 33.3284 42 32.5 42C31.6716 42 31 41.3284 31 40.5C31 39.6716 31.6716 39 32.5 39C33.3284 39 34 39.6716 34 40.5Z" fill="white"/>
</g>
<g filter="url(#filter3_i_3715_22)">
<path d="M7 26.0002L10.1253 26L10.0763 38.6314L17 38.6316V41.9984L7 42V26.0002Z" fill="white"/>
</g>
<g filter="url(#filter4_i_3715_22)">
<path d="M18 26H31V29.3684H26.125V42H22.875V29.3684H18V26Z" fill="white"/>
</g>
<defs>
<filter id="filter0_i_3715_22" x="51" y="0" width="74.671" height="12.6436" filterUnits="userSpaceOnUse" color-interpolation-filters="sRGB">
<feFlood flood-opacity="0" result="BackgroundImageFix"/>
<feBlend mode="normal" in="SourceGraphic" in2="BackgroundImageFix" result="shape"/>
<feColorMatrix in="SourceAlpha" type="matrix" values="0 0 0 0 0 0 0 0 0 0 0 0 0 0 0 0 0 0 127 0" result="hardAlpha"/>
<feOffset dx="0.263814" dy="0.263814"/>
<feGaussianBlur stdDeviation="0.0659536"/>
<feComposite in2="hardAlpha" operator="arithmetic" k2="-1" k3="1"/>
<feColorMatrix type="matrix" values="0 0 0 0 0 0 0 0 0 0 0 0 0 0 0 0 0 0 0.75 0"/>
<feBlend mode="normal" in2="shape" result="effect1_innerShadow_3715_22"/>
</filter>
<filter id="filter1_i_3715_22" x="48.0508" y="20.3438" width="142.099" height="23.7706" filterUnits="userSpaceOnUse" color-interpolation-filters="sRGB">
<feFlood flood-opacity="0" result="BackgroundImageFix"/>
<feBlend mode="normal" in="SourceGraphic" in2="BackgroundImageFix" result="shape"/>
<feColorMatrix in="SourceAlpha" type="matrix" values="0 0 0 0 0 0 0 0 0 0 0 0 0 0 0 0 0 0 127 0" result="hardAlpha"/>
<feOffset dx="0.263814" dy="0.263814"/>
<feGaussianBlur stdDeviation="0.065"/>
<feComposite in2="hardAlpha" operator="arithmetic" k2="-1" k3="1"/>
<feColorMatrix type="matrix" values="0 0 0 0 0 0 0 0 0 0 0 0 0 0 0 0 0 0 0.75 0"/>
<feBlend mode="normal" in2="shape" result="effect1_innerShadow_3715_22"/>
</filter>
<filter id="filter2_i_3715_22" x="31" y="39" width="3.14919" height="3.14919" filterUnits="userSpaceOnUse" color-interpolation-filters="sRGB">
<feFlood flood-opacity="0" result="BackgroundImageFix"/>
<feBlend mode="normal" in="SourceGraphic" in2="BackgroundImageFix" result="shape"/>
<feColorMatrix in="SourceAlpha" type="matrix" values="0 0 0 0 0 0 0 0 0 0 0 0 0 0 0 0 0 0 127 0" result="hardAlpha"/>
<feOffset dx="0.298373" dy="0.298373"/>
<feGaussianBlur stdDeviation="0.0745932"/>
<feComposite in2="hardAlpha" operator="arithmetic" k2="-1" k3="1"/>
<feColorMatrix type="matrix" values="0 0 0 0 0 0 0 0 0 0 0 0 0 0 0 0 0 0 0.75 0"/>
<feBlend mode="normal" in2="shape" result="effect1_innerShadow_3715_22"/>
</filter>
<filter id="filter3_i_3715_22" x="7" y="26" width="10.1492" height="16.1492" filterUnits="userSpaceOnUse" color-interpolation-filters="sRGB">
<feFlood flood-opacity="0" result="BackgroundImageFix"/>
<feBlend mode="normal" in="SourceGraphic" in2="BackgroundImageFix" result="shape"/>
<feColorMatrix in="SourceAlpha" type="matrix" values="0 0 0 0 0 0 0 0 0 0 0 0 0 0 0 0 0 0 127 0" result="hardAlpha"/>
<feOffset dx="0.298373" dy="0.298373"/>
<feGaussianBlur stdDeviation="0.0745932"/>
<feComposite in2="hardAlpha" operator="arithmetic" k2="-1" k3="1"/>
<feColorMatrix type="matrix" values="0 0 0 0 0 0 0 0 0 0 0 0 0 0 0 0 0 0 0.75 0"/>
<feBlend mode="normal" in2="shape" result="effect1_innerShadow_3715_22"/>
</filter>
<filter id="filter4_i_3715_22" x="18" y="26" width="13.1492" height="16.1492" filterUnits="userSpaceOnUse" color-interpolation-filters="sRGB">
<feFlood flood-opacity="0" result="BackgroundImageFix"/>
<feBlend mode="normal" in="SourceGraphic" in2="BackgroundImageFix" result="shape"/>
<feColorMatrix in="SourceAlpha" type="matrix" values="0 0 0 0 0 0 0 0 0 0 0 0 0 0 0 0 0 0 127 0" result="hardAlpha"/>
<feOffset dx="0.298373" dy="0.298373"/>
<feGaussianBlur stdDeviation="0.0745933"/>
<feComposite in2="hardAlpha" operator="arithmetic" k2="-1" k3="1"/>
<feColorMatrix type="matrix" values="0 0 0 0 0 0 0 0 0 0 0 0 0 0 0 0 0 0 0.75 0"/>
<feBlend mode="normal" in2="shape" result="effect1_innerShadow_3715_22"/>
</filter>
</defs>
</svg>
