<svg width="191" height="58" viewBox="0 0 191 58" fill="none" xmlns="http://www.w3.org/2000/svg">
<g filter="url(#filter0_i_3819_119)">
<path d="M51 12.3247V0H53.2242V10.4531H58.632V12.3247H51Z" fill="white"/>
<path d="M64.5427 12.5054C63.6195 12.5054 62.8221 12.3128 62.1506 11.9276C61.4831 11.5385 60.9696 10.9888 60.6098 10.2787C60.2501 9.56461 60.0703 8.72411 60.0703 7.75723C60.0703 6.8064 60.2501 5.97191 60.6098 5.25377C60.9735 4.53162 61.4811 3.96995 62.1326 3.56875C62.7841 3.16354 63.5495 2.96094 64.4288 2.96094C64.9964 2.96094 65.532 3.05322 66.0356 3.23776C66.5432 3.4183 66.9908 3.69914 67.3785 4.08027C67.7702 4.46141 68.078 4.94686 68.3018 5.53661C68.5256 6.12236 68.6375 6.82044 68.6375 7.63085V8.29884H61.0895V6.83047H66.5572C66.5532 6.41322 66.4632 6.04212 66.2874 5.71715C66.1115 5.38817 65.8657 5.1294 65.5499 4.94084C65.2382 4.75228 64.8745 4.658 64.4588 4.658C64.0152 4.658 63.6255 4.76632 63.2897 4.98296C62.954 5.1956 62.6922 5.47643 62.5043 5.82547C62.3205 6.1705 62.2266 6.54963 62.2226 6.96286V8.24468C62.2226 8.78228 62.3205 9.24366 62.5163 9.6288C62.7122 10.0099 62.986 10.3028 63.3377 10.5074C63.6894 10.708 64.1011 10.8083 64.5727 10.8083C64.8885 10.8083 65.1742 10.7642 65.43 10.6759C65.6858 10.5836 65.9077 10.4492 66.0955 10.2727C66.2834 10.0962 66.4253 9.87754 66.5212 9.61677L68.5476 9.84545C68.4197 10.383 68.1759 10.8524 67.8162 11.2536C67.4604 11.6508 67.0048 11.9597 66.4492 12.1804C65.8937 12.397 65.2582 12.5054 64.5427 12.5054Z" fill="white"/>
<path d="M75.0712 3.08179V4.76681H69.7773V3.08179H75.0712ZM71.0843 0.867188H73.2546V9.54504C73.2546 9.83791 73.2985 10.0626 73.3865 10.219C73.4784 10.3715 73.5983 10.4758 73.7462 10.532C73.8941 10.5881 74.058 10.6162 74.2378 10.6162C74.3737 10.6162 74.4976 10.6062 74.6095 10.5861C74.7254 10.5661 74.8134 10.548 74.8733 10.532L75.239 12.235C75.1231 12.2752 74.9572 12.3193 74.7414 12.3674C74.5296 12.4156 74.2698 12.4437 73.962 12.4517C73.4185 12.4677 72.9288 12.3855 72.4932 12.205C72.0575 12.0204 71.7118 11.7356 71.456 11.3504C71.2042 10.9653 71.0803 10.4838 71.0843 9.90612V0.867188Z" fill="white"/>
<path d="M79.1574 0V1.22766C79.1574 1.58071 79.0895 1.9478 78.9536 2.32894C78.8217 2.70606 78.6398 3.06714 78.408 3.41216C78.1762 3.75318 77.9124 4.04605 77.6166 4.29078L76.6094 3.63483C76.8293 3.30184 77.0211 2.94277 77.185 2.55762C77.3489 2.16846 77.4308 1.72915 77.4308 1.23969V0H79.1574Z" fill="white"/>
<path d="M87.0024 5.52458L85.0239 5.74122C84.968 5.54062 84.87 5.35206 84.7302 5.17554C84.5943 4.99901 84.4104 4.85659 84.1786 4.74826C83.9468 4.63994 83.663 4.58578 83.3273 4.58578C82.8756 4.58578 82.4959 4.68407 82.1881 4.88066C81.8844 5.07724 81.7345 5.332 81.7385 5.64494C81.7345 5.91374 81.8324 6.13239 82.0323 6.30089C82.2361 6.46939 82.5718 6.6078 83.0395 6.71613L84.6102 7.05313C85.4816 7.24169 86.1291 7.54058 86.5527 7.9498C86.9804 8.35902 87.1962 8.89462 87.2002 9.55659C87.1962 10.1383 87.0263 10.6518 86.6906 11.0972C86.3589 11.5385 85.8972 11.8835 85.3057 12.1322C84.7142 12.381 84.0347 12.5054 83.2673 12.5054C82.1402 12.5054 81.2329 12.2686 80.5454 11.7952C79.858 11.3178 79.4483 10.6538 79.3164 9.80332L81.4327 9.59871C81.5287 10.0159 81.7325 10.3309 82.0443 10.5435C82.356 10.7561 82.7617 10.8625 83.2613 10.8625C83.7769 10.8625 84.1906 10.7561 84.5023 10.5435C84.8181 10.3309 84.976 10.0681 84.976 9.75518C84.976 9.49039 84.874 9.27174 84.6702 9.09922C84.4704 8.92671 84.1586 8.79432 83.7349 8.70204L82.1642 8.37106C81.2809 8.18651 80.6274 7.87558 80.2037 7.43828C79.78 6.99696 79.5702 6.4393 79.5742 5.76529C79.5702 5.1956 79.7241 4.70213 80.0358 4.28488C80.3516 3.86363 80.7893 3.53866 81.3488 3.30998C81.9124 3.07729 82.5619 2.96094 83.2973 2.96094C84.3764 2.96094 85.2258 3.19163 85.8453 3.653C86.4688 4.11438 86.8545 4.73823 87.0024 5.52458Z" fill="white"/>
<path d="M92.7344 1.87158V0H102.53V1.87158H98.7356V12.3247H96.5294V1.87158H92.7344Z" fill="white"/>
<path d="M105.719 12.5114C105.135 12.5114 104.61 12.4071 104.142 12.1984C103.679 11.9858 103.311 11.6729 103.039 11.2596C102.771 10.8464 102.637 10.3369 102.637 9.73111C102.637 9.20955 102.733 8.77827 102.925 8.43725C103.117 8.09624 103.379 7.82342 103.711 7.61882C104.042 7.41421 104.416 7.25975 104.832 7.15543C105.251 7.04711 105.685 6.96888 106.133 6.92074C106.672 6.86457 107.11 6.81442 107.446 6.77029C107.781 6.72214 108.025 6.64993 108.177 6.55364C108.333 6.45334 108.411 6.29888 108.411 6.09026V6.05415C108.411 5.6008 108.277 5.24976 108.009 5.00102C107.741 4.75228 107.356 4.62791 106.852 4.62791C106.32 4.62791 105.899 4.74425 105.587 4.97695C105.279 5.20964 105.071 5.48446 104.964 5.8014L102.937 5.51254C103.097 4.95087 103.361 4.48147 103.728 4.10435C104.096 3.72321 104.546 3.43836 105.077 3.2498C105.609 3.05723 106.197 2.96094 106.84 2.96094C107.284 2.96094 107.725 3.0131 108.165 3.11741C108.605 3.22172 109.006 3.39423 109.37 3.63495C109.734 3.87165 110.026 4.19462 110.245 4.60383C110.469 5.01305 110.581 5.52458 110.581 6.13841V12.3248H108.495V11.055H108.423C108.291 11.3118 108.105 11.5525 107.865 11.7772C107.629 11.9978 107.332 12.1764 106.972 12.3128C106.616 12.4452 106.199 12.5114 105.719 12.5114ZM106.282 10.9106C106.718 10.9106 107.096 10.8243 107.416 10.6518C107.735 10.4753 107.981 10.2426 108.153 9.95377C108.329 9.66491 108.417 9.34997 108.417 9.00896V7.91971C108.349 7.97588 108.233 8.02803 108.069 8.07618C107.909 8.12432 107.729 8.16645 107.53 8.20255C107.33 8.23866 107.132 8.27076 106.936 8.29884C106.74 8.32692 106.57 8.351 106.426 8.37106C106.103 8.41519 105.813 8.4874 105.557 8.5877C105.301 8.688 105.099 8.82842 104.952 9.00896C104.804 9.18548 104.73 9.41416 104.73 9.695C104.73 10.0962 104.876 10.3991 105.167 10.6037C105.459 10.8083 105.831 10.9106 106.282 10.9106Z" fill="white"/>
<path d="M114.933 0V12.3247H112.762V0H114.933Z" fill="white"/>
<path d="M119.143 9.42407L119.137 6.79424H119.485L122.794 3.08118H125.33L121.259 7.63073H120.81L119.143 9.42407ZM117.164 12.3247V0H119.335V12.3247H117.164ZM122.944 12.3247L119.946 8.11818L121.409 6.58361L125.54 12.3247H122.944Z" fill="white"/>
</g>
<g filter="url(#filter1_i_3819_119)">
<path d="M61.9329 27.1166C61.8093 26.0824 61.2994 25.2813 60.4033 24.7133C59.5072 24.1379 58.3793 23.8503 57.0197 23.8503C56.0463 23.8503 55.2043 23.9959 54.4936 24.2872C53.7828 24.5713 53.2305 24.9645 52.8365 25.467C52.4503 25.9623 52.2571 26.5267 52.2571 27.1603C52.2571 27.6919 52.3885 28.1507 52.6511 28.5367C52.9215 28.9227 53.273 29.2468 53.7056 29.509C54.1459 29.7639 54.6172 29.9787 55.1193 30.1535C55.6214 30.321 56.1043 30.4594 56.5678 30.5686L58.8853 31.1366C59.6424 31.3114 60.4188 31.5481 61.2145 31.8467C62.0101 32.1453 62.7479 32.5386 63.4277 33.0265C64.1075 33.5145 64.656 34.1189 65.0732 34.8399C65.4981 35.5609 65.7105 36.4239 65.7105 37.4289C65.7105 38.6961 65.3629 39.8213 64.6676 40.8045C63.9801 41.7876 62.9796 42.5632 61.6664 43.1313C60.3608 43.6993 58.781 43.9834 56.927 43.9834C55.1502 43.9834 53.6129 43.7175 52.3151 43.1859C51.0172 42.6543 50.0014 41.9005 49.2675 40.9246C48.5336 39.9415 48.128 38.7762 48.0508 37.4289H51.643C51.7125 38.2373 51.9906 38.9109 52.4773 39.4499C52.9717 39.9815 53.6013 40.3784 54.3661 40.6406C55.1386 40.8955 55.9845 41.0229 56.9038 41.0229C57.9158 41.0229 58.8158 40.8736 59.6038 40.5751C60.3994 40.2692 61.0252 39.8468 61.481 39.3079C61.9368 38.7617 62.1646 38.1244 62.1646 37.3961C62.1646 36.7334 61.9638 36.1909 61.5621 35.7685C61.1681 35.3461 60.6312 34.9965 59.9514 34.7197C59.2793 34.443 58.5184 34.199 57.6686 33.9878L54.8644 33.2668C52.964 32.7789 51.4576 32.0615 50.3452 31.1148C49.2405 30.168 48.6881 28.9154 48.6881 27.3569C48.6881 26.0679 49.0589 24.9427 49.8005 23.9814C50.5421 23.02 51.5464 22.2736 52.8133 21.7419C54.0803 21.203 55.5094 20.9336 57.1008 20.9336C58.7076 20.9336 60.1252 21.1994 61.3535 21.731C62.5895 22.2626 63.5629 22.9946 64.2736 23.9267C64.9843 24.8517 65.3551 25.9149 65.386 27.1166H61.9329Z" fill="white"/>
<path d="M77.207 43.9498C75.5384 43.9498 74.0822 43.5893 72.8384 42.8683C71.5947 42.1473 70.6291 41.1387 69.9415 39.8423C69.254 38.546 68.9102 37.0312 68.9102 35.2979C68.9102 33.5573 69.254 32.0353 69.9415 30.7317C70.6291 29.428 71.5947 28.4157 72.8384 27.6948C74.0822 26.9738 75.5384 26.6133 77.207 26.6133C78.8757 26.6133 80.3318 26.9738 81.5756 27.6948C82.8193 28.4157 83.785 29.428 84.4725 30.7317C85.1601 32.0353 85.5038 33.5573 85.5038 35.2979C85.5038 37.0312 85.1601 38.546 84.4725 39.8423C83.785 41.1387 82.8193 42.1473 81.5756 42.8683C80.3318 43.5893 78.8757 43.9498 77.207 43.9498ZM77.2186 41.2078C78.3001 41.2078 79.1963 40.9384 79.907 40.3995C80.6177 39.8605 81.143 39.1432 81.4829 38.2474C81.8305 37.3516 82.0043 36.3648 82.0043 35.287C82.0043 34.2164 81.8305 33.2333 81.4829 32.3375C81.143 31.4344 80.6177 30.7098 79.907 30.1636C79.1963 29.6174 78.3001 29.3443 77.2186 29.3443C76.1294 29.3443 75.2255 29.6174 74.5071 30.1636C73.7964 30.7098 73.2672 31.4344 72.9196 32.3375C72.5797 33.2333 72.4097 34.2164 72.4097 35.287C72.4097 36.3648 72.5797 37.3516 72.9196 38.2474C73.2672 39.1432 73.7964 39.8605 74.5071 40.3995C75.2255 40.9384 76.1294 41.2078 77.2186 41.2078Z" fill="white"/>
<path d="M92.8359 21.2383V43.6108H89.3711V21.2383H92.8359Z" fill="white"/>
<path d="M108.774 36.6527V26.832H112.251V43.6113H108.844V40.7055H108.659C108.249 41.6013 107.592 42.3478 106.689 42.945C105.793 43.5349 104.676 43.8298 103.34 43.8298C102.196 43.8298 101.184 43.5931 100.304 43.1198C99.4312 42.6391 98.7437 41.929 98.2416 40.9896C97.7472 40.0501 97.5 38.8885 97.5 37.5048V26.832H100.964V37.1115C100.964 38.2549 101.3 39.1652 101.972 39.8425C102.645 40.5198 103.517 40.8585 104.591 40.8585C105.24 40.8585 105.885 40.7055 106.526 40.3997C107.175 40.0938 107.712 39.6313 108.137 39.0123C108.57 38.3933 108.782 37.6067 108.774 36.6527Z" fill="white"/>
<path d="M125.215 26.8326V29.4543H115.492V26.8326H125.215ZM118.1 22.8125H121.564V38.6852C121.564 39.3188 121.665 39.7958 121.866 40.1162C122.067 40.4294 122.325 40.6442 122.642 40.7608C122.966 40.87 123.318 40.9246 123.697 40.9246C123.975 40.9246 124.218 40.9064 124.427 40.87C124.635 40.8336 124.797 40.8045 124.913 40.7826L125.539 43.4809C125.338 43.5537 125.052 43.6265 124.681 43.6993C124.311 43.7795 123.847 43.8231 123.291 43.8304C122.379 43.845 121.53 43.6921 120.742 43.3716C119.954 43.0512 119.316 42.556 118.83 41.8859C118.343 41.2159 118.1 40.3748 118.1 39.3625V22.8125Z" fill="white"/>
<path d="M129.045 43.6119V26.8327H132.51V43.6119H129.045ZM130.795 24.2436C130.192 24.2436 129.675 24.0543 129.242 23.6756C128.817 23.2896 128.605 22.8308 128.605 22.2992C128.605 21.7602 128.817 21.3014 129.242 20.9227C129.675 20.5367 130.192 20.3438 130.795 20.3438C131.397 20.3438 131.911 20.5367 132.336 20.9227C132.769 21.3014 132.985 21.7602 132.985 22.2992C132.985 22.8308 132.769 23.2896 132.336 23.6756C131.911 24.0543 131.397 24.2436 130.795 24.2436Z" fill="white"/>
<path d="M144.667 43.9498C142.999 43.9498 141.542 43.5893 140.299 42.8683C139.055 42.1473 138.089 41.1387 137.402 39.8423C136.714 38.546 136.371 37.0312 136.371 35.2979C136.371 33.5573 136.714 32.0353 137.402 30.7317C138.089 29.428 139.055 28.4157 140.299 27.6948C141.542 26.9738 142.999 26.6133 144.667 26.6133C146.336 26.6133 147.792 26.9738 149.036 27.6948C150.28 28.4157 151.245 29.428 151.933 30.7317C152.62 32.0353 152.964 33.5573 152.964 35.2979C152.964 37.0312 152.62 38.546 151.933 39.8423C151.245 41.1387 150.28 42.1473 149.036 42.8683C147.792 43.5893 146.336 43.9498 144.667 43.9498ZM144.679 41.2078C145.76 41.2078 146.657 40.9384 147.367 40.3995C148.078 39.8605 148.603 39.1432 148.943 38.2474C149.291 37.3516 149.465 36.3648 149.465 35.287C149.465 34.2164 149.291 33.2333 148.943 32.3375C148.603 31.4344 148.078 30.7098 147.367 30.1636C146.657 29.6174 145.76 29.3443 144.679 29.3443C143.59 29.3443 142.686 29.6174 141.967 30.1636C141.257 30.7098 140.727 31.4344 140.38 32.3375C140.04 33.2333 139.87 34.2164 139.87 35.287C139.87 36.3648 140.04 37.3516 140.38 38.2474C140.727 39.1432 141.257 39.8605 141.967 40.3995C142.686 40.9384 143.59 41.2078 144.679 41.2078Z" fill="white"/>
<path d="M160.3 33.6484V43.6111H156.836V26.8318H160.161V29.5628H160.381C160.791 28.6743 161.432 27.9606 162.305 27.4217C163.186 26.8827 164.294 26.6133 165.631 26.6133C166.843 26.6133 167.906 26.8536 168.817 27.3343C169.729 27.8076 170.436 28.5141 170.938 29.4535C171.44 30.393 171.691 31.5546 171.691 32.9383V43.6111H168.226V33.3316C168.226 32.1154 167.89 31.165 167.218 30.4804C166.546 29.7885 165.623 29.4426 164.449 29.4426C163.645 29.4426 162.931 29.6065 162.305 29.9342C161.687 30.2619 161.196 30.7426 160.833 31.3762C160.478 32.0025 160.3 32.7599 160.3 33.6484Z" fill="white"/>
<path d="M189.672 30.9283L186.532 31.4526C186.401 31.0739 186.192 30.7134 185.906 30.3712C185.628 30.0289 185.25 29.7485 184.771 29.53C184.292 29.3115 183.693 29.2023 182.974 29.2023C181.993 29.2023 181.175 29.4098 180.518 29.825C179.861 30.2328 179.533 30.7608 179.533 31.4089C179.533 31.9697 179.753 32.4212 180.193 32.7635C180.634 33.1058 181.344 33.3862 182.326 33.6047L185.153 34.2164C186.791 34.5733 188.011 35.1231 188.815 35.866C189.618 36.6088 190.02 37.5738 190.02 38.7609C190.02 39.7659 189.711 40.6616 189.093 41.4482C188.483 42.2274 187.629 42.8392 186.532 43.2834C185.443 43.7277 184.18 43.9498 182.743 43.9498C180.75 43.9498 179.123 43.5492 177.864 42.7481C176.605 41.9398 175.833 40.7927 175.547 39.3071L178.896 38.8264C179.104 39.6493 179.533 40.272 180.182 40.6944C180.831 41.1095 181.677 41.3171 182.72 41.3171C183.855 41.3171 184.763 41.095 185.443 40.6507C186.122 40.1992 186.462 39.6493 186.462 39.0012C186.462 38.4768 186.254 38.0362 185.837 37.6794C185.427 37.3225 184.798 37.0531 183.948 36.871L180.935 36.2483C179.274 35.8915 178.046 35.3234 177.25 34.5442C176.462 33.7649 176.068 32.7781 176.068 31.5837C176.068 30.5933 176.362 29.7266 176.949 28.9838C177.536 28.241 178.347 27.662 179.382 27.2469C180.417 26.8245 181.603 26.6133 182.94 26.6133C184.863 26.6133 186.377 27.0065 187.482 27.7931C188.587 28.5723 189.317 29.6174 189.672 30.9283Z" fill="white"/>
</g>
<path d="M48 51.5005L118 51.5L189.5 51.5005" stroke="#B50B0C" stroke-width="0.659536"/>
<path d="M3.41697 22.836C3.41105 21.8238 4.22999 21 5.24224 21H19.8832H37.1745C38.1826 21 38.9998 21.8172 38.9998 22.8253V42.9288C38.9998 43.9369 38.1826 44.7541 37.1745 44.7541H20.8678C20.2533 44.7541 19.68 45.0634 19.3425 45.5769L13.9018 53.8556C13.7811 54.097 13.4181 54.0183 13.4083 53.7486L13.1446 46.5129C13.1087 45.5313 12.3026 44.7541 11.3204 44.7541H5.23938C4.22823 44.7541 3.40976 43.932 3.41408 42.9209L3.46487 31.0392L3.41697 22.836Z" fill="#B50B0C"/>
<g filter="url(#filter2_i_3819_119)">
<path d="M34.4372 38.7987C34.4372 39.5547 33.8242 40.1677 33.0682 40.1677C32.3122 40.1677 31.6992 39.5547 31.6992 38.7987C31.6992 38.0426 32.3122 37.4297 33.0682 37.4297C33.8242 37.4297 34.4372 38.0426 34.4372 38.7987Z" fill="white"/>
</g>
<g filter="url(#filter3_i_3819_119)">
<path d="M9.79688 25.5627L12.6492 25.5625L12.6045 37.0906L18.9234 37.0908V40.1635L9.79688 40.165V25.5627Z" fill="white"/>
</g>
<g filter="url(#filter4_i_3819_119)">
<path d="M19.8359 25.5625H31.7005V28.6367H27.2513V40.165H24.2851V28.6367H19.8359V25.5625Z" fill="white"/>
</g>
<defs>
<filter id="filter0_i_3819_119" x="51" y="0" width="74.671" height="12.6436" filterUnits="userSpaceOnUse" color-interpolation-filters="sRGB">
<feFlood flood-opacity="0" result="BackgroundImageFix"/>
<feBlend mode="normal" in="SourceGraphic" in2="BackgroundImageFix" result="shape"/>
<feColorMatrix in="SourceAlpha" type="matrix" values="0 0 0 0 0 0 0 0 0 0 0 0 0 0 0 0 0 0 127 0" result="hardAlpha"/>
<feOffset dx="0.263814" dy="0.263814"/>
<feGaussianBlur stdDeviation="0.0659536"/>
<feComposite in2="hardAlpha" operator="arithmetic" k2="-1" k3="1"/>
<feColorMatrix type="matrix" values="0 0 0 0 0 0 0 0 0 0 0 0 0 0 0 0 0 0 0.75 0"/>
<feBlend mode="normal" in2="shape" result="effect1_innerShadow_3819_119"/>
</filter>
<filter id="filter1_i_3819_119" x="48.0508" y="20.3438" width="142.099" height="23.7706" filterUnits="userSpaceOnUse" color-interpolation-filters="sRGB">
<feFlood flood-opacity="0" result="BackgroundImageFix"/>
<feBlend mode="normal" in="SourceGraphic" in2="BackgroundImageFix" result="shape"/>
<feColorMatrix in="SourceAlpha" type="matrix" values="0 0 0 0 0 0 0 0 0 0 0 0 0 0 0 0 0 0 127 0" result="hardAlpha"/>
<feOffset dx="0.263814" dy="0.263814"/>
<feGaussianBlur stdDeviation="0.065"/>
<feComposite in2="hardAlpha" operator="arithmetic" k2="-1" k3="1"/>
<feColorMatrix type="matrix" values="0 0 0 0 0 0 0 0 0 0 0 0 0 0 0 0 0 0 0.75 0"/>
<feBlend mode="normal" in2="shape" result="effect1_innerShadow_3819_119"/>
</filter>
<filter id="filter2_i_3819_119" x="31.6992" y="37.4297" width="2.87444" height="2.87444" filterUnits="userSpaceOnUse" color-interpolation-filters="sRGB">
<feFlood flood-opacity="0" result="BackgroundImageFix"/>
<feBlend mode="normal" in="SourceGraphic" in2="BackgroundImageFix" result="shape"/>
<feColorMatrix in="SourceAlpha" type="matrix" values="0 0 0 0 0 0 0 0 0 0 0 0 0 0 0 0 0 0 127 0" result="hardAlpha"/>
<feOffset dx="0.272312" dy="0.272312"/>
<feGaussianBlur stdDeviation="0.068078"/>
<feComposite in2="hardAlpha" operator="arithmetic" k2="-1" k3="1"/>
<feColorMatrix type="matrix" values="0 0 0 0 0 0 0 0 0 0 0 0 0 0 0 0 0 0 0.75 0"/>
<feBlend mode="normal" in2="shape" result="effect1_innerShadow_3819_119"/>
</filter>
<filter id="filter3_i_3819_119" x="9.79688" y="25.5625" width="9.26116" height="14.7377" filterUnits="userSpaceOnUse" color-interpolation-filters="sRGB">
<feFlood flood-opacity="0" result="BackgroundImageFix"/>
<feBlend mode="normal" in="SourceGraphic" in2="BackgroundImageFix" result="shape"/>
<feColorMatrix in="SourceAlpha" type="matrix" values="0 0 0 0 0 0 0 0 0 0 0 0 0 0 0 0 0 0 127 0" result="hardAlpha"/>
<feOffset dx="0.272312" dy="0.272312"/>
<feGaussianBlur stdDeviation="0.068078"/>
<feComposite in2="hardAlpha" operator="arithmetic" k2="-1" k3="1"/>
<feColorMatrix type="matrix" values="0 0 0 0 0 0 0 0 0 0 0 0 0 0 0 0 0 0 0.75 0"/>
<feBlend mode="normal" in2="shape" result="effect1_innerShadow_3819_119"/>
</filter>
<filter id="filter4_i_3819_119" x="19.8359" y="25.5625" width="11.9994" height="14.7377" filterUnits="userSpaceOnUse" color-interpolation-filters="sRGB">
<feFlood flood-opacity="0" result="BackgroundImageFix"/>
<feBlend mode="normal" in="SourceGraphic" in2="BackgroundImageFix" result="shape"/>
<feColorMatrix in="SourceAlpha" type="matrix" values="0 0 0 0 0 0 0 0 0 0 0 0 0 0 0 0 0 0 127 0" result="hardAlpha"/>
<feOffset dx="0.272312" dy="0.272312"/>
<feGaussianBlur stdDeviation="0.068078"/>
<feComposite in2="hardAlpha" operator="arithmetic" k2="-1" k3="1"/>
<feColorMatrix type="matrix" values="0 0 0 0 0 0 0 0 0 0 0 0 0 0 0 0 0 0 0.75 0"/>
<feBlend mode="normal" in2="shape" result="effect1_innerShadow_3819_119"/>
</filter>
</defs>
</svg>
