<svg width="46" height="44" viewBox="0 0 46 44" fill="none" xmlns="http://www.w3.org/2000/svg">
<path d="M0.011748 2.01168C0.00527088 0.902565 0.902581 0 2.01171 0H21.2943H44C45.1046 0 46 0.895431 46 2V28.699C46 29.8036 45.1046 30.699 44 30.699H22.3772C21.7016 30.699 21.0717 31.0401 20.7024 31.6058L13.5 42.6406C13.3566 42.9135 12.9444 42.8197 12.9332 42.5117L12.5728 32.6261C12.5336 31.5506 11.6504 30.699 10.5741 30.699H2.00857C0.900658 30.699 0.00385008 29.7983 0.0085861 28.6904L0.0757688 12.9744L0.011748 2.01168Z" fill="#C41E3A"/>
<g filter="url(#filter0_i_3715_36)">
<path d="M40.101 22.9997C40.101 23.9768 39.3088 24.7689 38.3317 24.7689C37.3546 24.7689 36.5625 23.9768 36.5625 22.9997C36.5625 22.0226 37.3546 21.2305 38.3317 21.2305C39.3088 21.2305 40.101 22.0226 40.101 22.9997Z" fill="white"/>
</g>
<g filter="url(#filter1_i_3715_36)">
<path d="M8.25781 5.89868L11.944 5.89844L11.8863 20.797L20.0527 20.7973V24.7683L8.25781 24.7702V5.89868Z" fill="white"/>
</g>
<g filter="url(#filter2_i_3715_36)">
<path d="M21.2305 5.89844H36.5638V9.87145H30.8138V24.7702H26.9805V9.87145H21.2305V5.89844Z" fill="white"/>
</g>
<defs>
<filter id="filter0_i_3715_36" x="36.5625" y="21.2305" width="3.68825" height="3.68825" filterUnits="userSpaceOnUse" color-interpolation-filters="sRGB">
<feFlood flood-opacity="0" result="BackgroundImageFix"/>
<feBlend mode="normal" in="SourceGraphic" in2="BackgroundImageFix" result="shape"/>
<feColorMatrix in="SourceAlpha" type="matrix" values="0 0 0 0 0 0 0 0 0 0 0 0 0 0 0 0 0 0 127 0" result="hardAlpha"/>
<feOffset dx="0.298373" dy="0.298373"/>
<feGaussianBlur stdDeviation="0.0745932"/>
<feComposite in2="hardAlpha" operator="arithmetic" k2="-1" k3="1"/>
<feColorMatrix type="matrix" values="0 0 0 0 0 0 0 0 0 0 0 0 0 0 0 0 0 0 0.75 0"/>
<feBlend mode="normal" in2="shape" result="effect1_innerShadow_3715_36"/>
</filter>
<filter id="filter1_i_3715_36" x="8.25781" y="5.89844" width="11.9422" height="19.0203" filterUnits="userSpaceOnUse" color-interpolation-filters="sRGB">
<feFlood flood-opacity="0" result="BackgroundImageFix"/>
<feBlend mode="normal" in="SourceGraphic" in2="BackgroundImageFix" result="shape"/>
<feColorMatrix in="SourceAlpha" type="matrix" values="0 0 0 0 0 0 0 0 0 0 0 0 0 0 0 0 0 0 127 0" result="hardAlpha"/>
<feOffset dx="0.298373" dy="0.298373"/>
<feGaussianBlur stdDeviation="0.0745932"/>
<feComposite in2="hardAlpha" operator="arithmetic" k2="-1" k3="1"/>
<feColorMatrix type="matrix" values="0 0 0 0 0 0 0 0 0 0 0 0 0 0 0 0 0 0 0.75 0"/>
<feBlend mode="normal" in2="shape" result="effect1_innerShadow_3715_36"/>
</filter>
<filter id="filter2_i_3715_36" x="21.2305" y="5.89844" width="15.4812" height="19.0203" filterUnits="userSpaceOnUse" color-interpolation-filters="sRGB">
<feFlood flood-opacity="0" result="BackgroundImageFix"/>
<feBlend mode="normal" in="SourceGraphic" in2="BackgroundImageFix" result="shape"/>
<feColorMatrix in="SourceAlpha" type="matrix" values="0 0 0 0 0 0 0 0 0 0 0 0 0 0 0 0 0 0 127 0" result="hardAlpha"/>
<feOffset dx="0.298373" dy="0.298373"/>
<feGaussianBlur stdDeviation="0.0745933"/>
<feComposite in2="hardAlpha" operator="arithmetic" k2="-1" k3="1"/>
<feColorMatrix type="matrix" values="0 0 0 0 0 0 0 0 0 0 0 0 0 0 0 0 0 0 0.75 0"/>
<feBlend mode="normal" in2="shape" result="effect1_innerShadow_3715_36"/>
</filter>
</defs>
</svg>
