<svg width="32" height="32" viewBox="0 0 32 32" fill="none" xmlns="http://www.w3.org/2000/svg">
  <!-- Application - Speech bubble with window -->
  <path d="M4 4C4 2.9 4.9 2 6 2H26C27.1 2 28 2.9 28 4V20C28 21.1 27.1 22 26 22H18L12 28V22H6C4.9 22 4 21.1 4 20V4Z" fill="#C41E3A"/>
  <!-- App window -->
  <rect x="8" y="5" width="16" height="14" rx="2" fill="white"/>
  <!-- Title bar dots -->
  <circle cx="11" cy="8" r="1" fill="#C41E3A"/>
  <circle cx="14" cy="8" r="1" fill="#C41E3A" fill-opacity="0.5"/>
  <circle cx="17" cy="8" r="1" fill="#C41E3A" fill-opacity="0.5"/>
  <!-- Code lines -->
  <rect x="10" y="11" width="8" height="1.5" rx="0.75" fill="#C41E3A" fill-opacity="0.3"/>
  <rect x="10" y="14" width="12" height="1.5" rx="0.75" fill="#C41E3A" fill-opacity="0.3"/>
</svg>
