<svg width="32" height="32" viewBox="0 0 32 32" fill="none" xmlns="http://www.w3.org/2000/svg">
  <!-- Business Service - Speech bubble with gear -->
  <path d="M4 4C4 2.9 4.9 2 6 2H26C27.1 2 28 2.9 28 4V20C28 21.1 27.1 22 26 22H18L12 28V22H6C4.9 22 4 21.1 4 20V4Z" fill="#C41E3A"/>
  <!-- Gear -->
  <path d="M17.5 5H14.5L14 7.2C13.5 7.4 13 7.6 12.6 7.9L10.5 7L9 9.6L10.8 11C10.7 11.3 10.7 11.7 10.7 12C10.7 12.3 10.7 12.7 10.8 13L9 14.4L10.5 17L12.6 16.1C13 16.4 13.5 16.6 14 16.8L14.5 19H17.5L18 16.8C18.5 16.6 19 16.4 19.4 16.1L21.5 17L23 14.4L21.2 13C21.3 12.7 21.3 12.3 21.3 12C21.3 11.7 21.3 11.3 21.2 11L23 9.6L21.5 7L19.4 7.9C19 7.6 18.5 7.4 18 7.2L17.5 5Z" fill="white"/>
  <circle cx="16" cy="12" r="3" fill="#C41E3A"/>
</svg>
