<svg width="32" height="32" viewBox="0 0 32 32" fill="none" xmlns="http://www.w3.org/2000/svg">
  <!-- Cloud Resource - Speech bubble with cloud -->
  <path d="M4 4C4 2.9 4.9 2 6 2H26C27.1 2 28 2.9 28 4V20C28 21.1 27.1 22 26 22H18L12 28V22H6C4.9 22 4 21.1 4 20V4Z" fill="#C41E3A"/>
  <!-- Cloud shape -->
  <path d="M10 17C8.34 17 7 15.66 7 14C7 12.55 8.05 11.35 9.42 11.08C9.55 9.35 10.98 8 12.75 8C13.92 8 14.94 8.58 15.55 9.46C15.84 9.36 16.14 9.31 16.47 9.31C18.21 9.31 19.63 10.73 19.63 12.47C19.63 12.49 19.63 12.51 19.63 12.52C20.75 12.82 21.56 13.84 21.56 15.05C21.56 16.53 20.36 17.73 18.88 17.73H10V17Z" fill="white"/>
  <!-- Upload arrow -->
  <path d="M14.5 15.5V12.5M13 13.5L14.5 12L16 13.5" stroke="#C41E3A" stroke-width="1.5" stroke-linecap="round" stroke-linejoin="round"/>
</svg>
