<svg width="32" height="32" viewBox="0 0 32 32" fill="none" xmlns="http://www.w3.org/2000/svg">
  <!-- Team - Speech bubble with multiple avatars -->
  <path d="M4 4C4 2.9 4.9 2 6 2H26C27.1 2 28 2.9 28 4V20C28 21.1 27.1 22 26 22H18L12 28V22H6C4.9 22 4 21.1 4 20V4Z" fill="#C41E3A"/>
  <!-- Left person -->
  <circle cx="11" cy="9" r="3" fill="white" fill-opacity="0.7"/>
  <path d="M6 17C6 14.24 8.24 12 11 12C13.76 12 16 14.24 16 17V18H6V17Z" fill="white" fill-opacity="0.7"/>
  <!-- Right person (front) -->
  <circle cx="21" cy="9" r="3" fill="white"/>
  <path d="M16 17C16 14.24 18.24 12 21 12C23.76 12 26 14.24 26 17V18H16V17Z" fill="white"/>
</svg>
