<svg width="32" height="32" viewBox="0 0 32 32" fill="none" xmlns="http://www.w3.org/2000/svg">
  <!-- Cloud Resource - Light version -->
  <path d="M8 24C4.69 24 2 21.31 2 18C2 15.17 4 12.8 6.71 12.2C6.86 8.72 9.79 6 13.33 6C15.56 6 17.51 7.11 18.67 8.77C19.21 8.59 19.79 8.5 20.4 8.5C23.7 8.5 26.4 11.2 26.4 14.5C26.4 14.53 26.4 14.56 26.4 14.59C28.52 15.17 30 17.12 30 19.44C30 22.26 27.76 24.5 24.94 24.5H8V24Z" fill="#C41E3A"/>
  <!-- Navy accent upload indicator -->
  <circle cx="16" cy="18" r="5" fill="#4A5568"/>
  <path d="M16 21V15M13.5 17L16 14.5L18.5 17" stroke="white" stroke-width="1.5" stroke-linecap="round" stroke-linejoin="round"/>
</svg>
