<svg width="32" height="32" viewBox="0 0 32 32" fill="none" xmlns="http://www.w3.org/2000/svg">
  <!-- Software License - Key/document hybrid -->
  <path d="M6 4C6 2.9 6.9 2 8 2H20L26 8V28C26 29.1 25.1 30 24 30H8C6.9 30 6 29.1 6 28V4Z" fill="#4A5568"/>
  <path d="M20 2V8H26" fill="#5A6478"/>
  <!-- Key symbol with red accent -->
  <circle cx="16" cy="18" r="5" fill="#C41E3A"/>
  <circle cx="16" cy="18" r="2" fill="#4A5568"/>
  <rect x="18" y="17" width="8" height="2" rx="1" fill="#C41E3A"/>
  <rect x="22" y="19" width="2" height="3" rx="0.5" fill="#C41E3A"/>
  <rect x="25" y="19" width="2" height="2" rx="0.5" fill="#C41E3A"/>
  <!-- License lines -->
  <rect x="9" y="7" width="8" height="1.5" rx="0.75" fill="white" fill-opacity="0.3"/>
  <rect x="9" y="10" width="5" height="1.5" rx="0.75" fill="white" fill-opacity="0.3"/>
</svg>
